ply
format ascii 1.0
comment Created by Blender 2.58 (sub 0) - www.blender.org, source file: 'boat.blend'
element vertex 484
property float x
property float y
property float z
property float nx
property float ny
property float nz
property float s
property float t
element face 180
property list uchar uint vertex_indices
end_header
-0.231313 -0.228585 0.252796 -0.751438 -0.611629 0.247488 0.795706 0.888122 
-0.231311 1.000000 3.289066 -0.751438 -0.611629 0.247488 0.722952 0.582560 
-1.231313 1.000000 0.252797 -0.751438 -0.611629 0.247488 0.722719 0.878975 
0.768687 1.000000 0.252795 0.751439 -0.611629 0.247487 0.247742 0.691294 
-0.231311 1.000000 3.289066 0.751439 -0.611629 0.247487 0.193786 0.985468 
-0.231313 -0.228585 0.252796 0.751439 -0.611629 0.247487 0.292115 0.788146 
-1.231313 1.000000 -0.263365 -0.757710 -0.648262 -0.075045 0.610752 0.935581 
-0.231314 -0.063221 -1.175668 -0.757710 -0.648262 -0.075045 0.686394 0.841817 
-0.231313 -0.228585 0.252796 -0.757710 -0.648262 -0.075045 0.693656 0.980028 
-1.231313 1.000000 0.252797 -0.775565 -0.631267 0.000001 0.614166 0.985468 
-1.231313 1.000000 -0.263365 -0.775565 -0.631267 0.000001 0.610752 0.935581 
-0.231313 -0.228585 0.252796 -0.775565 -0.631267 0.000001 0.693656 0.980028 
-1.231313 1.000000 -0.263365 -0.728432 -0.685118 0.000001 0.610752 0.935581 
-1.231314 1.000000 -0.779527 -0.728432 -0.685118 0.000001 0.607338 0.885694 
-0.231314 -0.063221 -1.175668 -0.728432 -0.685118 0.000001 0.686394 0.841817 
0.768687 1.000000 -0.263367 0.757710 -0.648262 -0.075045 0.247713 0.641290 
-0.231313 -0.228585 0.252796 0.757710 -0.648262 -0.075045 0.292333 0.691269 
-0.231314 -0.063221 -1.175668 0.757710 -0.648262 -0.075045 0.278968 0.552892 
0.768686 1.000000 -0.779529 0.728432 -0.685118 -0.000000 0.247685 0.591286 
0.768687 1.000000 -0.263367 0.728432 -0.685118 -0.000000 0.247713 0.641290 
-0.231314 -0.063221 -1.175668 0.728432 -0.685118 -0.000000 0.278968 0.552892 
0.768687 1.000000 -0.263367 0.775565 -0.631267 -0.000000 0.247713 0.641290 
0.768687 1.000000 0.252795 0.775565 -0.631267 -0.000000 0.247742 0.691294 
-0.231313 -0.228585 0.252796 0.775565 -0.631267 -0.000000 0.292333 0.691269 
0.768687 1.000000 0.252795 -0.703374 0.672012 -0.231657 0.321591 0.588114 
0.268687 0.611855 0.644966 -0.703374 0.672012 -0.231657 0.374791 0.550226 
-0.231311 1.000000 3.289066 -0.703374 0.672012 -0.231657 0.358795 0.294043 
0.268687 0.611855 0.644966 0.000000 0.989396 -0.145240 0.014537 0.550190 
-0.231313 0.611855 0.644966 0.000000 0.989396 -0.145240 0.060561 0.550192 
-0.231311 1.000000 3.289066 0.000000 0.989396 -0.145240 0.072298 0.294041 
-0.731313 0.611856 0.644967 0.000000 0.989396 -0.145240 0.106584 0.550195 
-0.731313 0.611856 0.644967 0.703374 0.672012 -0.231658 0.106584 0.550195 
-1.231313 1.000000 0.252797 0.703374 0.672012 -0.231658 0.164330 0.588190 
-0.231311 1.000000 3.289066 0.703374 0.672012 -0.231658 0.072298 0.294041 
-0.731314 0.611855 -0.387357 0.518315 0.838343 0.168909 0.106579 0.650203 
-0.231316 1.000000 -3.848121 0.518315 0.838343 0.168909 0.072261 0.985468 
-1.231314 1.000000 -0.779527 0.518315 0.838343 0.168909 0.164325 0.688198 
-0.231314 0.380198 -0.536902 0.454633 0.875474 0.163873 0.053557 0.664688 
-0.231316 1.000000 -3.848121 0.454633 0.875474 0.163873 0.072261 0.985468 
-0.731314 0.611855 -0.387357 0.454633 0.875474 0.163873 0.106579 0.650203 
0.268687 0.611855 -0.387358 -0.454633 0.875474 0.163874 0.374595 0.650234 
-0.231316 1.000000 -3.848121 -0.454633 0.875474 0.163874 0.357443 0.985468 
-0.231314 0.380198 -0.536902 -0.454633 0.875474 0.163874 0.413657 0.664798 
0.768686 1.000000 -0.779529 -0.518314 0.838344 0.168910 0.321396 0.688122 
-0.231316 1.000000 -3.848121 -0.518314 0.838344 0.168910 0.357443 0.985468 
0.268687 0.611855 -0.387358 -0.518314 0.838344 0.168910 0.374595 0.650234 
-0.496308 1.267564 -2.932517 -0.930787 0.365471 0.008213 0.811165 0.468052 
-0.731314 0.611855 -0.387357 -0.930787 0.365471 0.008213 0.839831 0.214048 
-0.496307 1.213502 -0.526594 -0.930787 0.365471 0.008213 0.780085 0.237005 
-0.496308 1.267564 -2.932517 -0.927447 -0.332424 -0.171277 0.811165 0.468052 
-0.231316 1.000000 -3.848121 -0.927447 -0.332424 -0.171277 0.838935 0.553497 
-0.731314 0.611855 -0.387357 -0.927447 -0.332424 -0.171277 0.839831 0.214048 
0.063484 1.267563 -2.932517 0.945923 0.324308 0.007287 0.871950 0.669019 
0.063485 1.213502 -0.526595 0.945923 0.324308 0.007287 0.836513 0.899428 
0.268687 0.611855 -0.387358 0.945923 0.324308 0.007287 0.892793 0.922849 
-0.231316 1.000000 -3.848121 0.901603 -0.395740 -0.174646 0.892527 0.582560 
0.063484 1.267563 -2.932517 0.901603 -0.395740 -0.174646 0.871950 0.669019 
0.268687 0.611855 -0.387358 0.901603 -0.395740 -0.174646 0.892793 0.922849 
0.063484 1.267563 -2.932517 0.000000 0.959855 -0.280495 0.869084 0.464680 
-0.231316 1.000000 -3.848121 0.000000 0.959855 -0.280495 0.887589 0.553497 
-0.216412 1.267563 -2.932517 0.000000 0.959855 -0.280495 0.894848 0.464839 
-0.496308 1.267564 -2.932517 0.000000 0.959855 -0.280495 0.920611 0.464999 
-0.231316 1.000000 -3.848121 -0.000000 -0.993769 -0.111457 0.495568 0.317455 
0.268687 0.611855 -0.387358 -0.000000 -0.993769 -0.111457 0.538685 0.652687 
-0.731314 0.611855 -0.387357 -0.000000 -0.993769 -0.111457 0.442720 0.652767 
-0.216412 1.267563 -2.932517 0.000000 0.999748 0.022464 0.894848 0.464839 
-0.496307 1.213502 -0.526594 0.000000 0.999748 0.022464 0.920420 0.231915 
0.063485 1.213502 -0.526595 0.000000 0.999748 0.022464 0.868894 0.231596 
0.063484 1.267563 -2.932517 0.000000 0.999748 0.022464 0.869084 0.464680 
-0.496308 1.267564 -2.932517 0.000000 0.999748 0.022464 0.920611 0.464999 
-0.219807 3.383476 0.622677 0.000006 1.000000 0.000003 0.280195 0.252201 
-0.086124 3.383476 0.609510 0.000006 1.000000 0.000003 0.268067 0.254639 
-0.101339 3.383476 0.559354 0.000006 1.000000 0.000003 0.269922 0.259343 
-0.219807 0.560975 0.622677 -0.000006 -1.000000 -0.000003 0.735393 0.972716 
-0.101339 0.560975 0.559354 -0.000006 -1.000000 -0.000003 0.742552 0.961963 
-0.086124 0.560975 0.609510 -0.000006 -1.000000 -0.000003 0.746122 0.965568 
-0.219807 3.383476 0.622677 0.000003 1.000000 -0.000002 0.280195 0.252201 
-0.101339 3.383476 0.559354 0.000003 1.000000 -0.000002 0.269922 0.259343 
-0.134589 3.383476 0.518838 0.000003 1.000000 -0.000002 0.273341 0.262960 
-0.219807 0.560975 0.622677 -0.000003 -1.000000 0.000002 0.735393 0.972716 
-0.134589 0.560975 0.518838 -0.000003 -1.000000 0.000002 0.737892 0.959995 
-0.101339 0.560975 0.559354 -0.000003 -1.000000 0.000002 0.742552 0.961963 
-0.219807 3.383476 0.622677 0.000009 1.000000 0.000003 0.280195 0.252201 
-0.134589 3.383476 0.518838 0.000009 1.000000 0.000003 0.273341 0.262960 
-0.180813 3.383476 0.494131 0.000009 1.000000 0.000003 0.277804 0.264939 
-0.219807 0.560975 0.622677 -0.000005 -1.000000 0.000000 0.735393 0.972716 
-0.180814 0.560975 0.494131 -0.000005 -1.000000 0.000000 0.732852 0.959964 
-0.134589 0.560975 0.518838 -0.000005 -1.000000 0.000000 0.737892 0.959995 
-0.219807 3.383476 0.622677 0.000000 1.000000 -0.000000 0.280195 0.252201 
-0.180813 3.383476 0.494131 0.000000 1.000000 -0.000000 0.277804 0.264939 
-0.232974 3.383476 0.488993 0.000000 1.000000 -0.000000 0.282631 0.264979 
-0.219807 0.560975 0.622677 -0.000006 -1.000000 0.000000 0.735393 0.972716 
-0.232974 0.560975 0.488993 -0.000006 -1.000000 0.000000 0.728198 0.961874 
-0.180814 0.560975 0.494131 -0.000006 -1.000000 0.000000 0.732852 0.959964 
-0.219807 3.383476 0.622677 0.000009 1.000000 -0.000001 0.280195 0.252201 
-0.232974 3.383476 0.488993 0.000009 1.000000 -0.000001 0.282631 0.264979 
-0.283130 3.383477 0.504208 0.000009 1.000000 -0.000001 0.287087 0.263073 
-0.283131 0.560976 0.504208 -0.000005 -1.000000 0.000000 0.724640 0.965435 
-0.232974 0.560975 0.488993 -0.000005 -1.000000 0.000000 0.728198 0.961874 
-0.219807 3.383476 0.622677 0.000002 1.000000 0.000003 0.280195 0.252201 
-0.283130 3.383477 0.504208 0.000002 1.000000 0.000003 0.287087 0.263073 
-0.323646 3.383477 0.537459 0.000002 1.000000 0.000003 0.290494 0.259512 
-0.323646 0.560976 0.537459 -0.000005 -1.000000 -0.000000 0.722719 0.970104 
-0.219807 3.383476 0.622677 0.000003 1.000000 0.000002 0.280195 0.252201 
-0.323646 3.383477 0.537459 0.000003 1.000000 0.000002 0.290494 0.259512 
-0.348353 3.383477 0.583683 0.000003 1.000000 0.000002 0.292333 0.254839 
-0.348354 0.560976 0.583683 -0.000005 -1.000000 0.000000 0.722728 0.975171 
-0.219807 3.383476 0.622677 0.000004 1.000000 0.000000 0.280195 0.252201 
-0.348353 3.383477 0.583683 0.000004 1.000000 0.000000 0.292333 0.254839 
-0.353491 3.383477 0.635844 0.000004 1.000000 0.000000 0.292324 0.249764 
-0.219807 0.560975 0.622677 -0.000005 -1.000000 0.000001 0.735393 0.972716 
-0.353491 0.560976 0.635843 -0.000005 -1.000000 0.000001 0.724665 0.979865 
-0.348354 0.560976 0.583683 -0.000005 -1.000000 0.000001 0.722728 0.975171 
-0.219807 3.383476 0.622677 0.000003 1.000000 -0.000001 0.280195 0.252201 
-0.353491 3.383477 0.635844 0.000003 1.000000 -0.000001 0.292324 0.249764 
-0.338276 3.383477 0.686000 0.000003 1.000000 -0.000001 0.290469 0.245059 
-0.338276 0.560976 0.686000 -0.000005 -1.000000 0.000000 0.728235 0.983470 
-0.353491 0.560976 0.635843 -0.000005 -1.000000 0.000000 0.724665 0.979865 
-0.338276 3.383477 0.686000 0.000003 1.000000 -0.000002 0.290469 0.245059 
-0.305025 3.383477 0.726516 0.000003 1.000000 -0.000002 0.287049 0.241443 
-0.305026 0.560976 0.726515 -0.000005 -1.000000 -0.000000 0.732895 0.985437 
-0.305025 3.383477 0.726516 0.000009 1.000000 0.000003 0.287049 0.241443 
-0.258801 3.383476 0.751223 0.000009 1.000000 0.000003 0.282587 0.239464 
-0.258802 0.560975 0.751223 -0.000005 -1.000000 -0.000000 0.737935 0.985468 
-0.258801 3.383476 0.751223 0.000000 1.000000 0.000000 0.282587 0.239464 
-0.206640 3.383476 0.756360 0.000000 1.000000 0.000000 0.277760 0.239424 
-0.219807 0.560975 0.622677 -0.000003 -1.000000 0.000000 0.735393 0.972716 
-0.206641 0.560975 0.756360 -0.000003 -1.000000 0.000000 0.742589 0.983558 
-0.258802 0.560975 0.751223 -0.000003 -1.000000 0.000000 0.737935 0.985468 
-0.206640 3.383476 0.756360 0.000009 1.000000 -0.000001 0.277760 0.239424 
-0.156484 3.383476 0.741146 0.000009 1.000000 -0.000001 0.273304 0.241329 
-0.156485 0.560975 0.741146 -0.000005 -1.000000 0.000000 0.746147 0.979997 
-0.206641 0.560975 0.756360 -0.000005 -1.000000 0.000000 0.742589 0.983558 
-0.156484 3.383476 0.741146 0.000002 1.000000 0.000003 0.273304 0.241329 
-0.115968 3.383476 0.707895 0.000002 1.000000 0.000003 0.269897 0.244890 
-0.115969 0.560975 0.707896 -0.000005 -1.000000 0.000001 0.748068 0.975328 
-0.156485 0.560975 0.741146 -0.000005 -1.000000 0.000001 0.746147 0.979997 
-0.115968 3.383476 0.707895 0.000003 1.000000 0.000002 0.269897 0.244890 
-0.091261 3.383476 0.661671 0.000003 1.000000 0.000002 0.268058 0.249564 
-0.091262 0.560975 0.661672 -0.000005 -1.000000 0.000000 0.748059 0.970261 
-0.115969 0.560975 0.707896 -0.000005 -1.000000 0.000000 0.748068 0.975328 
-0.219807 3.383476 0.622677 0.000005 1.000000 -0.000004 0.280195 0.252201 
-0.091261 3.383476 0.661671 0.000005 1.000000 -0.000004 0.268058 0.249564 
-0.086124 3.383476 0.609510 0.000005 1.000000 -0.000004 0.268067 0.254639 
-0.219807 0.560975 0.622677 -0.000005 -1.000000 0.000002 0.735393 0.972716 
-0.086124 0.560975 0.609510 -0.000005 -1.000000 0.000002 0.746122 0.965568 
-0.091262 0.560975 0.661672 -0.000005 -1.000000 0.000002 0.748059 0.970261 
-0.229290 1.613329 0.585908 0.369286 0.000004 0.929316 0.201037 0.256626 
-0.148145 1.604728 0.553663 0.369286 0.000004 0.929316 0.193400 0.258168 
-0.151263 1.638798 0.554902 0.369286 0.000004 0.929316 0.193393 0.254854 
-1.271627 1.613327 -2.037077 -0.369283 -0.000017 -0.929317 0.156823 0.256620 
-1.193600 1.638797 -2.068083 -0.369283 -0.000017 -0.929317 0.164330 0.258427 
-1.190482 1.604727 -2.069321 -0.369283 -0.000017 -0.929317 0.164328 0.255114 
-0.229290 1.613329 0.585908 0.369287 0.000002 0.929315 0.201037 0.256626 
-0.151263 1.638798 0.554902 0.369287 0.000002 0.929315 0.193393 0.254854 
-0.166261 1.668990 0.560861 0.369287 0.000002 0.929315 0.194549 0.251810 
-1.271627 1.613327 -2.037077 -0.369291 0.000012 -0.929314 0.156823 0.256620 
-1.208598 1.668988 -2.062123 -0.369291 0.000012 -0.929314 0.163189 0.261465 
-1.193600 1.638797 -2.068083 -0.369291 0.000012 -0.929314 0.164330 0.258427 
-0.229290 1.613329 0.585908 0.369286 0.000003 0.929316 0.201037 0.256626 
-0.166261 1.668990 0.560861 0.369286 0.000003 0.929316 0.194549 0.251810 
-0.190854 1.690708 0.570634 0.369286 0.000003 0.929316 0.196693 0.249499 
-1.271627 1.613327 -2.037077 -0.369289 0.000009 -0.929315 0.156823 0.256620 
-1.233190 1.690706 -2.052350 -0.369289 0.000009 -0.929315 0.161079 0.263766 
-1.208598 1.668988 -2.062123 -0.369289 0.000009 -0.929315 0.163189 0.261465 
-0.229290 1.613329 0.585908 0.369290 0.000001 0.929314 0.201037 0.256626 
-0.190854 1.690708 0.570634 0.369290 0.000001 0.929314 0.196693 0.249499 
-0.221298 1.700645 0.582732 0.369290 0.000001 0.929314 0.199499 0.248273 
-1.271627 1.613327 -2.037077 -0.369274 0.000001 -0.929321 0.156823 0.256620 
-1.263635 1.700644 -2.040253 -0.369274 0.000001 -0.929321 0.158321 0.264978 
-1.233190 1.690706 -2.052350 -0.369274 0.000001 -0.929321 0.161079 0.263766 
-0.229290 1.613329 0.585908 0.369291 0.000001 0.929314 0.201037 0.256626 
-0.221298 1.700645 0.582732 0.369291 0.000001 0.929314 0.199499 0.248273 
-0.252959 1.697290 0.595313 0.369291 0.000001 0.929314 0.202538 0.248318 
-1.271627 1.613327 -2.037077 -0.369280 0.000001 -0.929318 0.156823 0.256620 
-1.295296 1.697289 -2.027672 -0.369280 0.000001 -0.929318 0.155335 0.264919 
-1.263635 1.700644 -2.040253 -0.369280 0.000001 -0.929318 0.158321 0.264978 
-0.229290 1.613329 0.585908 0.369288 -0.000000 0.929315 0.201037 0.256626 
-0.252959 1.697290 0.595313 0.369288 -0.000000 0.929315 0.202538 0.248318 
-0.281017 1.681152 0.606463 0.369288 -0.000000 0.929315 0.205349 0.249629 
-1.271627 1.613327 -2.037077 -0.369296 -0.000004 -0.929312 0.156823 0.256620 
-1.323354 1.681151 -2.016522 -0.369296 -0.000004 -0.929312 0.152575 0.263595 
-1.295296 1.697289 -2.027672 -0.369296 -0.000004 -0.929312 0.155335 0.264919 
-0.229290 1.613329 0.585908 0.369292 0.000003 0.929314 0.201037 0.256626 
-0.281017 1.681152 0.606463 0.369292 0.000003 0.929314 0.205349 0.249629 
-0.301199 1.654688 0.614483 0.369292 0.000003 0.929314 0.207503 0.252004 
-1.343536 1.654687 -2.008501 -0.369296 -0.000004 -0.929312 0.150462 0.261210 
-0.229290 1.613329 0.585908 0.369290 0.000000 0.929314 0.201037 0.256626 
-0.301199 1.654688 0.614483 0.369290 0.000000 0.929314 0.207503 0.252004 
-0.310434 1.621928 0.618153 0.369290 0.000000 0.929314 0.208673 0.255083 
-1.271627 1.613327 -2.037077 -0.369295 -0.000002 -0.929312 0.156823 0.256620 
-1.352772 1.621927 -2.004831 -0.369295 -0.000002 -0.929312 0.149317 0.258126 
-1.343536 1.654687 -2.008501 -0.369295 -0.000002 -0.929312 0.150462 0.261210 
-0.229290 1.613329 0.585908 0.369290 0.000003 0.929314 0.201037 0.256626 
-0.310434 1.621928 0.618153 0.369290 0.000003 0.929314 0.208673 0.255083 
-0.307316 1.587859 0.616914 0.369290 0.000003 0.929314 0.208680 0.258397 
-1.271627 1.613327 -2.037077 -0.369295 -0.000003 -0.929312 0.156823 0.256620 
-1.349653 1.587858 -2.006070 -0.369295 -0.000003 -0.929312 0.149315 0.254812 
-1.352772 1.621927 -2.004831 -0.369295 -0.000003 -0.929312 0.149317 0.258126 
-0.229290 1.613329 0.585908 0.369292 -0.000002 0.929313 0.201037 0.256626 
-0.307316 1.587859 0.616914 0.369292 -0.000002 0.929313 0.208680 0.258397 
-0.292319 1.557667 0.610954 0.369292 -0.000002 0.929313 0.207524 0.261442 
-1.271627 1.613327 -2.037077 -0.369296 0.000001 -0.929312 0.156823 0.256620 
-1.334656 1.557666 -2.012030 -0.369296 0.000001 -0.929312 0.150456 0.251774 
-1.349653 1.587858 -2.006070 -0.369296 0.000001 -0.929312 0.149315 0.254812 
-0.292319 1.557667 0.610954 0.369290 0.000001 0.929314 0.207524 0.261442 
-0.267726 1.535950 0.601182 0.369290 0.000001 0.929314 0.205380 0.263753 
-1.271627 1.613327 -2.037077 -0.369292 -0.000005 -0.929314 0.156823 0.256620 
-1.310063 1.535948 -2.021803 -0.369292 -0.000005 -0.929314 0.152566 0.249473 
-1.334656 1.557666 -2.012030 -0.369292 -0.000005 -0.929314 0.150456 0.251774 
-0.229290 1.613329 0.585908 0.369289 0.000001 0.929314 0.201037 0.256626 
-0.267726 1.535950 0.601182 0.369289 0.000001 0.929314 0.205380 0.263753 
-0.237282 1.526012 0.589084 0.369289 0.000001 0.929314 0.202575 0.264979 
-1.271627 1.613327 -2.037077 -0.369289 -0.000006 -0.929315 0.156823 0.256620 
-1.279619 1.526011 -2.033900 -0.369289 -0.000006 -0.929315 0.155325 0.248261 
-1.310063 1.535948 -2.021803 -0.369289 -0.000006 -0.929315 0.152566 0.249473 
-0.229290 1.613329 0.585908 0.369283 0.000002 0.929317 0.201037 0.256626 
-0.237282 1.526012 0.589084 0.369283 0.000002 0.929317 0.202575 0.264979 
-0.205621 1.529367 0.576502 0.369283 0.000002 0.929317 0.199535 0.264933 
-1.271627 1.613327 -2.037077 -0.369293 -0.000006 -0.929313 0.156823 0.256620 
-1.247958 1.529366 -2.046482 -0.369293 -0.000006 -0.929313 0.158311 0.248321 
-1.279619 1.526011 -2.033900 -0.369293 -0.000006 -0.929313 0.155325 0.248261 
-0.229290 1.613329 0.585908 0.369291 0.000004 0.929314 0.201037 0.256626 
-0.205621 1.529367 0.576502 0.369291 0.000004 0.929314 0.199535 0.264933 
-0.177563 1.545505 0.565353 0.369291 0.000004 0.929314 0.196724 0.263623 
-1.271627 1.613327 -2.037077 -0.369281 -0.000002 -0.929318 0.156823 0.256620 
-1.219900 1.545504 -2.057631 -0.369281 -0.000002 -0.929318 0.161070 0.249644 
-1.247958 1.529366 -2.046482 -0.369281 -0.000002 -0.929318 0.158311 0.248321 
-0.229290 1.613329 0.585908 0.369289 0.000003 0.929314 0.201037 0.256626 
-0.177563 1.545505 0.565353 0.369289 0.000003 0.929314 0.196724 0.263623 
-0.157380 1.571968 0.557332 0.369289 0.000003 0.929314 0.194570 0.261247 
-1.271627 1.613327 -2.037077 -0.369290 -0.000009 -0.929314 0.156823 0.256620 
-1.199717 1.571967 -2.065652 -0.369290 -0.000009 -0.929314 0.163183 0.252029 
-1.219900 1.545504 -2.057631 -0.369290 -0.000009 -0.929314 0.161070 0.249644 
-0.229290 1.613329 0.585908 0.369285 -0.000005 0.929316 0.201037 0.256626 
-0.157380 1.571968 0.557332 0.369285 -0.000005 0.929316 0.194570 0.261247 
-0.148145 1.604728 0.553663 0.369285 -0.000005 0.929316 0.193400 0.258168 
-1.271627 1.613327 -2.037077 -0.369280 0.000009 -0.929318 0.156823 0.256620 
-1.190482 1.604727 -2.069321 -0.369280 0.000009 -0.929318 0.164328 0.255114 
-1.199717 1.571967 -2.065652 -0.369280 0.000009 -0.929318 0.163183 0.252029 
-0.347556 1.628930 0.571037 -0.937760 0.086689 0.336290 0.578275 0.808229 
-0.187977 3.628929 0.500467 -0.937760 0.086689 0.336290 0.442720 0.681830 
-1.165843 1.628929 -1.710796 -0.937760 0.086689 0.336290 0.442811 0.985468 
-1.165843 1.628929 -1.710796 0.914565 0.000000 -0.404439 0.607338 0.313695 
-0.187977 3.628929 0.500467 0.914565 0.000000 -0.404439 0.607526 0.553497 
-0.187977 1.628930 0.500468 0.914565 0.000000 -0.404439 0.751022 0.481165 
-1.165843 1.628929 -1.710796 0.000001 -1.000000 0.000000 0.734640 0.050043 
-0.187977 1.628930 0.500468 0.000001 -1.000000 0.000000 0.751022 0.283341 
-0.347556 1.628930 0.571037 0.000001 -1.000000 0.000000 0.734302 0.284632 
-0.347556 1.628930 0.571037 0.404439 0.000000 0.914565 0.705239 0.284632 
-0.187977 1.628930 0.500468 0.404439 0.000000 0.914565 0.690030 0.284587 
-0.187977 3.628929 0.500467 0.404439 0.000000 0.914565 0.690605 0.090835 
-1.190482 1.604727 -2.069321 0.889296 -0.290286 -0.353394 0.573611 0.087349 
-0.148145 1.604728 0.553663 0.889296 -0.290286 -0.353394 0.573926 0.347642 
-0.157380 1.571968 0.557332 0.889296 -0.290286 -0.353394 0.575932 0.348448 
-1.190482 1.604727 -2.069321 0.889296 -0.290287 -0.353393 0.573611 0.087349 
-0.157380 1.571968 0.557332 0.889296 -0.290287 -0.353393 0.575932 0.348448 
-1.199717 1.571967 -2.065652 0.889296 -0.290287 -0.353393 0.575617 0.088155 
-1.199717 1.571967 -2.065652 0.718366 -0.634395 -0.285468 0.575617 0.088155 
-0.157380 1.571968 0.557332 0.718366 -0.634395 -0.285468 0.575932 0.348448 
-0.177563 1.545505 0.565353 0.718366 -0.634395 -0.285468 0.576774 0.349430 
-1.199717 1.571967 -2.065652 0.718369 -0.634391 -0.285470 0.575617 0.088155 
-0.177563 1.545505 0.565353 0.718369 -0.634391 -0.285470 0.576774 0.349430 
-1.219900 1.545504 -2.057631 0.718369 -0.634391 -0.285470 0.576459 0.089137 
-1.219900 1.545504 -2.057631 0.438074 -0.881921 -0.174084 0.576459 0.089137 
-0.177563 1.545505 0.565353 0.438074 -0.881921 -0.174084 0.576774 0.349430 
-0.205621 1.529367 0.576502 0.438074 -0.881921 -0.174084 0.576325 0.350437 
-1.219900 1.545504 -2.057631 0.438073 -0.881922 -0.174084 0.576459 0.089137 
-0.205621 1.529367 0.576502 0.438073 -0.881922 -0.174084 0.576325 0.350437 
-1.247958 1.529366 -2.046482 0.438073 -0.881922 -0.174084 0.576010 0.090144 
-1.247958 1.529366 -2.046482 0.091085 -0.995185 -0.036195 0.576774 0.379500 
-0.205621 1.529367 0.576502 0.091085 -0.995185 -0.036195 0.576364 0.652585 
-0.237282 1.526012 0.589084 0.091085 -0.995185 -0.036195 0.573049 0.652585 
-1.247958 1.529366 -2.046482 0.091088 -0.995185 -0.036197 0.576774 0.379500 
-0.237282 1.526012 0.589084 0.091088 -0.995185 -0.036197 0.573049 0.652585 
-1.279619 1.526011 -2.033900 0.091088 -0.995185 -0.036197 0.573459 0.379500 
-1.279619 1.526011 -2.033900 -0.269764 -0.956941 0.107201 0.573459 0.379500 
-0.237282 1.526012 0.589084 -0.269764 -0.956941 0.107201 0.573049 0.652585 
-0.267726 1.535950 0.601182 -0.269764 -0.956941 0.107201 0.570023 0.652649 
-1.279619 1.526011 -2.033900 -0.269765 -0.956940 0.107201 0.573459 0.379500 
-0.267726 1.535950 0.601182 -0.269765 -0.956940 0.107201 0.570023 0.652649 
-1.310063 1.535948 -2.021803 -0.269765 -0.956940 0.107201 0.570434 0.379564 
-1.310063 1.535948 -2.021803 -0.589550 -0.773010 0.234279 0.570434 0.379564 
-0.267726 1.535950 0.601182 -0.589550 -0.773010 0.234279 0.570023 0.652649 
-0.292319 1.557667 0.610954 -0.589550 -0.773010 0.234279 0.567748 0.652767 
-1.310063 1.535948 -2.021803 -0.589553 -0.773007 0.234280 0.570434 0.379564 
-0.292319 1.557667 0.610954 -0.589553 -0.773007 0.234280 0.567748 0.652767 
-1.334656 1.557666 -2.012030 -0.589553 -0.773007 0.234280 0.568159 0.379682 
-1.334656 1.557666 -2.012030 -0.819581 -0.471395 0.325690 0.456754 0.288392 
-0.292319 1.557667 0.610954 -0.819581 -0.471395 0.325690 0.456776 0.031434 
-0.307316 1.587859 0.616914 -0.819581 -0.471395 0.325690 0.454727 0.030542 
-1.334656 1.557666 -2.012030 -0.819577 -0.471402 0.325689 0.456754 0.288392 
-0.307316 1.587859 0.616914 -0.819577 -0.471402 0.325689 0.454727 0.030542 
-1.349653 1.587858 -2.006070 -0.819577 -0.471402 0.325689 0.454706 0.287501 
-1.349653 1.587858 -2.006070 -0.924837 -0.098018 0.367517 0.454706 0.287501 
-0.307316 1.587859 0.616914 -0.924837 -0.098018 0.367517 0.454727 0.030542 
-0.310434 1.621928 0.618153 -0.924837 -0.098018 0.367517 0.451836 0.029986 
-1.349653 1.587858 -2.006070 -0.924837 -0.098014 0.367517 0.454706 0.287501 
-0.310434 1.621928 0.618153 -0.924837 -0.098014 0.367517 0.451836 0.029986 
-1.352772 1.621927 -2.004831 -0.924837 -0.098014 0.367517 0.451815 0.286945 
-1.352772 1.621927 -2.004831 -0.889297 0.290283 0.353394 0.451815 0.286945 
-0.310434 1.621928 0.618153 -0.889297 0.290283 0.353394 0.451836 0.029986 
-0.301199 1.654688 0.614483 -0.889297 0.290283 0.353394 0.448543 0.029851 
-1.352772 1.621927 -2.004831 -0.889296 0.290283 0.353394 0.451815 0.286945 
-0.301199 1.654688 0.614483 -0.889296 0.290283 0.353394 0.448543 0.029851 
-1.343536 1.654687 -2.008501 -0.889296 0.290283 0.353394 0.448522 0.286809 
-1.343536 1.654687 -2.008501 -0.718370 0.634391 0.285470 0.448522 0.286809 
-0.301199 1.654688 0.614483 -0.718370 0.634391 0.285470 0.448543 0.029851 
-0.281017 1.681152 0.606463 -0.718370 0.634391 0.285470 0.445350 0.030156 
-1.343536 1.654687 -2.008501 -0.718369 0.634391 0.285470 0.448522 0.286809 
-0.281017 1.681152 0.606463 -0.718369 0.634391 0.285470 0.445350 0.030156 
-1.323354 1.681151 -2.016522 -0.718369 0.634391 0.285470 0.445328 0.287115 
-1.323354 1.681151 -2.016522 -0.438071 0.881923 0.174083 0.445328 0.287115 
-0.281017 1.681152 0.606463 -0.438071 0.881923 0.174083 0.445350 0.030156 
-1.295296 1.697289 -2.027672 -0.438071 0.881923 0.174083 0.442720 0.287815 
-0.281017 1.681152 0.606463 -0.438078 0.881919 0.174086 0.445350 0.030156 
-0.252959 1.697290 0.595313 -0.438078 0.881919 0.174086 0.442742 0.030857 
-1.295296 1.697289 -2.027672 -0.438078 0.881919 0.174086 0.442720 0.287815 
-1.295296 1.697289 -2.027672 -0.091085 0.995185 0.036195 0.985184 0.854456 
-0.252959 1.697290 0.595313 -0.091085 0.995185 0.036195 0.985469 0.582840 
-1.263635 1.700644 -2.040253 -0.091085 0.995185 0.036195 0.982122 0.854599 
-0.252959 1.697290 0.595313 -0.091091 0.995184 0.036198 0.985469 0.582840 
-0.221298 1.700645 0.582732 -0.091091 0.995184 0.036198 0.982406 0.582984 
-1.263635 1.700644 -2.040253 -0.091091 0.995184 0.036198 0.982122 0.854599 
-1.263635 1.700644 -2.040253 0.269766 0.956940 -0.107202 0.982122 0.854599 
-0.221298 1.700645 0.582732 0.269766 0.956940 -0.107202 0.982406 0.582984 
-1.233190 1.690706 -2.052350 0.269766 0.956940 -0.107202 0.978806 0.854597 
-0.221298 1.700645 0.582732 0.269762 0.956941 -0.107200 0.982406 0.582984 
-0.190854 1.690708 0.570634 0.269762 0.956941 -0.107200 0.979090 0.582981 
-1.233190 1.690706 -2.052350 0.269762 0.956941 -0.107200 0.978806 0.854597 
-1.233190 1.690706 -2.052350 0.589550 0.773010 -0.234279 0.978806 0.854597 
-0.190854 1.690708 0.570634 0.589550 0.773010 -0.234279 0.979090 0.582981 
-1.208598 1.668988 -2.062123 0.589550 0.773010 -0.234279 0.975740 0.854448 
-0.190854 1.690708 0.570634 0.589545 0.773014 -0.234278 0.979090 0.582981 
-0.166261 1.668990 0.560861 0.589545 0.773014 -0.234278 0.976024 0.582832 
-1.208598 1.668988 -2.062123 0.589545 0.773014 -0.234278 0.975740 0.854448 
-1.208598 1.668988 -2.062123 0.819577 0.471403 -0.325689 0.975740 0.854448 
-0.166261 1.668990 0.560861 0.819577 0.471403 -0.325689 0.976024 0.582832 
-0.151263 1.638798 0.554902 0.819577 0.471403 -0.325689 0.973676 0.582560 
-1.208598 1.668988 -2.062123 0.819578 0.471401 -0.325689 0.975740 0.854448 
-0.151263 1.638798 0.554902 0.819578 0.471401 -0.325689 0.973676 0.582560 
-1.193600 1.638797 -2.068083 0.819578 0.471401 -0.325689 0.973392 0.854176 
-1.193600 1.638797 -2.068083 0.924837 0.098016 -0.367517 0.570748 0.086839 
-0.151263 1.638798 0.554902 0.924837 0.098016 -0.367517 0.571063 0.347132 
-1.190482 1.604727 -2.069321 0.924837 0.098016 -0.367517 0.573611 0.087349 
-0.151263 1.638798 0.554902 0.924837 0.098019 -0.367517 0.571063 0.347132 
-0.148145 1.604728 0.553663 0.924837 0.098019 -0.367517 0.573926 0.347642 
-1.190482 1.604727 -2.069321 0.924837 0.098019 -0.367517 0.573611 0.087349 
-0.091261 3.383476 0.661671 0.995185 -0.000000 0.098015 0.617378 0.283298 
-0.091262 0.560975 0.661672 0.995185 -0.000000 0.098015 0.617250 0.056515 
-0.086124 3.383476 0.609510 0.995185 -0.000000 0.098015 0.612325 0.283022 
-0.091262 0.560975 0.661672 0.995185 -0.000000 0.098019 0.617250 0.056515 
-0.086124 0.560975 0.609510 0.995185 -0.000000 0.098019 0.612196 0.056240 
-0.086124 3.383476 0.609510 0.995185 -0.000000 0.098019 0.612325 0.283022 
-0.115968 3.383476 0.707895 0.881918 -0.000000 0.471402 0.621857 0.284632 
-0.115969 0.560975 0.707896 0.881918 -0.000000 0.471402 0.621728 0.057850 
-0.091262 0.560975 0.661672 0.881918 -0.000000 0.471402 0.617250 0.056515 
-0.115968 3.383476 0.707895 0.881922 0.000000 0.471396 0.621857 0.284632 
-0.091262 0.560975 0.661672 0.881922 0.000000 0.471396 0.617250 0.056515 
-0.091261 3.383476 0.661671 0.881922 0.000000 0.471396 0.617378 0.283298 
-0.156484 3.383476 0.741146 0.634394 -0.000000 0.773010 0.953483 0.280062 
-0.156485 0.560975 0.741146 0.634394 -0.000000 0.773010 0.953510 0.553496 
-0.115968 3.383476 0.707895 0.634394 -0.000000 0.773010 0.949674 0.280062 
-0.156485 0.560975 0.741146 0.634388 0.000000 0.773015 0.953510 0.553496 
-0.115969 0.560975 0.707896 0.634388 0.000000 0.773015 0.949701 0.553497 
-0.115968 3.383476 0.707895 0.634388 0.000000 0.773015 0.949674 0.280062 
-0.206640 3.383476 0.756360 0.290284 -0.000000 0.956941 0.958287 0.280061 
-0.206641 0.560975 0.756360 0.290284 -0.000000 0.956941 0.958314 0.553496 
-0.156484 3.383476 0.741146 0.290284 -0.000000 0.956941 0.953483 0.280062 
-0.206641 0.560975 0.756360 0.290280 0.000000 0.956942 0.958314 0.553496 
-0.156485 0.560975 0.741146 0.290280 0.000000 0.956942 0.953510 0.553496 
-0.156484 3.383476 0.741146 0.290280 0.000000 0.956942 0.953483 0.280062 
-0.258801 3.383476 0.751223 -0.098012 -0.000000 0.995185 0.963354 0.280061 
-0.258802 0.560975 0.751223 -0.098012 -0.000000 0.995185 0.963381 0.553495 
-0.206640 3.383476 0.756360 -0.098012 -0.000000 0.995185 0.958287 0.280061 
-0.258802 0.560975 0.751223 -0.098016 0.000000 0.995185 0.963381 0.553495 
-0.206641 0.560975 0.756360 -0.098016 0.000000 0.995185 0.958314 0.553496 
-0.206640 3.383476 0.756360 -0.098016 0.000000 0.995185 0.958287 0.280061 
-0.305025 3.383477 0.726516 -0.471397 0.000000 0.881921 0.967914 0.280060 
-0.305026 0.560976 0.726515 -0.471397 0.000000 0.881921 0.967941 0.553495 
-0.258801 3.383476 0.751223 -0.471397 0.000000 0.881921 0.963354 0.280061 
-0.305026 0.560976 0.726515 -0.471400 0.000000 0.881919 0.967941 0.553495 
-0.258802 0.560975 0.751223 -0.471400 0.000000 0.881919 0.963381 0.553495 
-0.258801 3.383476 0.751223 -0.471400 0.000000 0.881919 0.963354 0.280061 
-0.338276 3.383477 0.686000 -0.773009 0.000000 0.634395 0.524295 0.287170 
-0.338276 0.560976 0.686000 -0.773009 0.000000 0.634395 0.524013 0.034034 
-0.305025 3.383477 0.726516 -0.773009 0.000000 0.634395 0.520371 0.288392 
-0.338276 0.560976 0.686000 -0.773011 0.000000 0.634392 0.524013 0.034034 
-0.305026 0.560976 0.726515 -0.773011 0.000000 0.634392 0.520089 0.035256 
-0.305025 3.383477 0.726516 -0.773011 0.000000 0.634392 0.520371 0.288392 
-0.353491 3.383477 0.635844 -0.956941 0.000000 0.290284 0.529153 0.286608 
-0.353491 0.560976 0.635843 -0.956941 0.000000 0.290284 0.528871 0.033471 
-0.338276 0.560976 0.686000 -0.956941 0.000000 0.290284 0.524013 0.034034 
-0.353491 3.383477 0.635844 -0.956940 0.000000 0.290286 0.529153 0.286608 
-0.338276 0.560976 0.686000 -0.956940 0.000000 0.290286 0.524013 0.034034 
-0.338276 3.383477 0.686000 -0.956940 0.000000 0.290286 0.524295 0.287170 
-0.348353 3.383477 0.583683 -0.995185 0.000000 -0.098016 0.534206 0.286790 
-0.348354 0.560976 0.583683 -0.995185 0.000000 -0.098016 0.533925 0.033653 
-0.353491 0.560976 0.635843 -0.995185 0.000000 -0.098016 0.528871 0.033471 
-0.348353 3.383477 0.583683 -0.995185 0.000000 -0.098017 0.534206 0.286790 
-0.353491 0.560976 0.635843 -0.995185 0.000000 -0.098017 0.528871 0.033471 
-0.353491 3.383477 0.635844 -0.995185 0.000000 -0.098017 0.529153 0.286608 
-0.323646 3.383477 0.537459 -0.881921 0.000000 -0.471397 0.538685 0.287690 
-0.323646 0.560976 0.537459 -0.881921 0.000000 -0.471397 0.538404 0.034553 
-0.348354 0.560976 0.583683 -0.881921 0.000000 -0.471397 0.533925 0.033653 
-0.323646 3.383477 0.537459 -0.881922 0.000000 -0.471396 0.538685 0.287690 
-0.348354 0.560976 0.583683 -0.881922 0.000000 -0.471396 0.533925 0.033653 
-0.348353 3.383477 0.583683 -0.881922 0.000000 -0.471396 0.534206 0.286790 
-0.283130 3.383477 0.504208 -0.634394 0.000000 -0.773010 0.940652 0.582615 
-0.283131 0.560976 0.504208 -0.634394 0.000000 -0.773010 0.939813 0.856048 
-0.323646 0.560976 0.537459 -0.634394 0.000000 -0.773010 0.943490 0.856059 
-0.323646 3.383477 0.537459 -0.634394 0.000000 -0.773010 0.944329 0.582626 
-0.232974 3.383476 0.488993 -0.290290 0.000000 -0.956939 0.935914 0.582600 
-0.232974 0.560975 0.488993 -0.290290 0.000000 -0.956939 0.935076 0.856034 
-0.283131 0.560976 0.504208 -0.290290 0.000000 -0.956939 0.939813 0.856048 
-0.232974 3.383476 0.488993 -0.290287 -0.000000 -0.956940 0.935914 0.582600 
-0.283131 0.560976 0.504208 -0.290287 -0.000000 -0.956940 0.939813 0.856048 
-0.283130 3.383477 0.504208 -0.290287 -0.000000 -0.956940 0.940652 0.582615 
-0.180813 3.383476 0.494131 0.098016 -0.000000 -0.995185 0.930838 0.582585 
-0.180814 0.560975 0.494131 0.098016 -0.000000 -0.995185 0.930000 0.856018 
-0.232974 0.560975 0.488993 0.098016 -0.000000 -0.995185 0.935076 0.856034 
-0.232974 3.383476 0.488993 0.098016 -0.000000 -0.995185 0.935914 0.582600 
-0.134589 3.383476 0.518838 0.471395 0.000000 -0.881922 0.926196 0.582571 
-0.134589 0.560975 0.518838 0.471395 0.000000 -0.881922 0.925357 0.856004 
-0.180814 0.560975 0.494131 0.471395 0.000000 -0.881922 0.930000 0.856018 
-0.134589 3.383476 0.518838 0.471399 -0.000000 -0.881920 0.926196 0.582571 
-0.180814 0.560975 0.494131 0.471399 -0.000000 -0.881920 0.930000 0.856018 
-0.180813 3.383476 0.494131 0.471399 -0.000000 -0.881920 0.930838 0.582585 
-0.101339 3.383476 0.559354 0.773009 -0.000000 -0.634395 0.922695 0.582560 
-0.101339 0.560975 0.559354 0.773009 -0.000000 -0.634395 0.921856 0.855993 
-0.134589 0.560975 0.518838 0.773009 -0.000000 -0.634395 0.925357 0.856004 
-0.134589 3.383476 0.518838 0.773009 -0.000000 -0.634395 0.926196 0.582571 
-0.086124 3.383476 0.609510 0.956940 -0.000000 -0.290287 0.612325 0.283022 
-0.086124 0.560975 0.609510 0.956940 -0.000000 -0.290287 0.612196 0.056240 
-0.101339 0.560975 0.559354 0.956940 -0.000000 -0.290287 0.607338 0.057066 
-0.086124 3.383476 0.609510 0.956940 -0.000000 -0.290286 0.612325 0.283022 
-0.101339 0.560975 0.559354 0.956940 -0.000000 -0.290286 0.607338 0.057066 
-0.101339 3.383476 0.559354 0.956940 -0.000000 -0.290286 0.607467 0.283849 
-0.731314 0.611855 -0.387357 0.000001 0.225467 0.974251 0.413648 0.168163 
0.268687 0.611855 -0.387358 0.000001 0.225467 0.974251 0.413657 0.264980 
-0.496307 1.213502 -0.526594 0.000001 0.225467 0.974251 0.355364 0.190446 
0.063485 1.213502 -0.526595 0.000001 0.225467 0.974251 0.355370 0.244643 
0.268687 0.611855 0.644966 -0.613208 0.789922 0.000000 0.374791 0.550226 
0.768687 1.000000 0.252795 -0.613208 0.789922 0.000000 0.321591 0.588114 
0.268687 0.611855 0.128804 -0.613208 0.789922 0.000000 0.374693 0.600230 
0.768687 1.000000 -0.263367 -0.613208 0.789922 0.000000 0.321494 0.638118 
-0.231313 0.611855 0.644966 0.000000 1.000000 -0.000000 0.060561 0.550192 
0.268687 0.611855 0.644966 0.000000 1.000000 -0.000000 0.014537 0.550190 
0.268687 0.611855 0.128804 0.000000 1.000000 -0.000000 0.014534 0.600194 
-0.231313 0.611855 0.128804 0.000000 1.000000 -0.000000 0.060558 0.600196 
-0.731313 0.611856 0.644967 0.000000 1.000000 -0.000000 0.106584 0.550195 
-0.731313 0.611855 0.128805 0.000000 1.000000 -0.000000 0.106582 0.600199 
-1.231313 1.000000 0.252797 0.613208 0.789922 -0.000000 0.164330 0.588190 
-0.731313 0.611856 0.644967 0.613208 0.789922 -0.000000 0.106584 0.550195 
-0.731313 0.611855 0.128805 0.613208 0.789922 -0.000000 0.106582 0.600199 
-1.231313 1.000000 -0.263365 0.613208 0.789922 -0.000000 0.164327 0.638194 
0.268687 0.611855 -0.387358 -0.613208 0.789922 0.000000 0.374595 0.650234 
0.768687 1.000000 -0.263367 -0.613207 0.789922 0.000000 0.321494 0.638118 
0.768686 1.000000 -0.779529 -0.613207 0.789922 0.000000 0.321396 0.688122 
0.268687 0.611855 -0.387358 -0.613207 0.789922 0.000000 0.374595 0.650234 
0.268687 0.611855 -0.387358 0.000000 1.000000 -0.000000 0.014532 0.650198 
-0.231313 0.611855 0.128804 -0.321292 0.894375 -0.311231 0.060558 0.600196 
0.268687 0.611855 -0.387358 -0.321292 0.894375 -0.311231 0.014532 0.650198 
-0.231314 0.380198 -0.536902 -0.321292 0.894375 -0.311231 0.053557 0.664688 
-0.731314 0.611855 -0.387357 0.000000 1.000000 -0.000000 0.106579 0.650203 
-0.231313 0.611855 0.128804 0.321291 0.894375 -0.311231 0.060558 0.600196 
-0.231314 0.380198 -0.536902 0.321291 0.894375 -0.311231 0.053557 0.664688 
-0.731314 0.611855 -0.387357 0.321291 0.894375 -0.311231 0.106579 0.650203 
-1.231313 1.000000 -0.263365 0.613208 0.789922 -0.000001 0.164327 0.638194 
-0.731313 0.611855 0.128805 0.613208 0.789922 -0.000001 0.106582 0.600199 
-0.731314 0.611855 -0.387357 0.613208 0.789922 -0.000001 0.106579 0.650203 
-1.231314 1.000000 -0.779527 0.613208 0.789922 -0.000001 0.164325 0.688198 
-0.231316 1.000000 -3.848121 0.810183 -0.523349 -0.264025 0.193393 0.294042 
0.768686 1.000000 -0.779529 0.810183 -0.523349 -0.264025 0.247685 0.591286 
-0.231315 0.374717 -2.608685 0.810183 -0.523349 -0.264025 0.243701 0.414086 
0.768686 1.000000 -0.779529 0.749618 -0.632972 -0.193440 0.247685 0.591286 
-0.231314 -0.063221 -1.175668 0.749618 -0.632972 -0.193440 0.278968 0.552892 
-0.231315 0.374717 -2.608685 0.749618 -0.632972 -0.193440 0.243701 0.414086 
-1.231314 1.000000 -0.779527 -0.810184 -0.523349 -0.264024 0.607338 0.885694 
-0.231316 1.000000 -3.848121 -0.810184 -0.523349 -0.264024 0.682780 0.582560 
-0.231315 0.374717 -2.608685 -0.810184 -0.523349 -0.264024 0.682708 0.702918 
-1.231314 1.000000 -0.779527 -0.749618 -0.632972 -0.193439 0.607338 0.885694 
-0.231315 0.374717 -2.608685 -0.749618 -0.632972 -0.193439 0.682708 0.702918 
-0.231314 -0.063221 -1.175668 -0.749618 -0.632972 -0.193439 0.686394 0.841817 
3 0 1 2
3 3 4 5
3 6 7 8
3 9 10 11
3 12 13 14
3 15 16 17
3 18 19 20
3 21 22 23
3 24 25 26
3 27 28 29
3 28 30 29
3 31 32 33
3 34 35 36
3 37 38 39
3 40 41 42
3 43 44 45
3 46 47 48
3 49 50 51
3 52 53 54
3 55 56 57
3 58 59 60
3 60 59 61
3 62 63 64
3 65 66 67
3 68 65 67
3 65 69 66
3 70 71 72
3 73 74 75
3 76 77 78
3 79 80 81
3 82 83 84
3 85 86 87
3 88 89 90
3 91 92 93
3 94 95 96
3 85 97 98
3 99 100 101
3 85 102 97
3 103 104 105
3 85 106 102
3 107 108 109
3 110 111 112
3 113 114 115
3 85 116 117
3 76 118 119
3 85 120 116
3 82 121 122
3 85 123 120
3 88 124 125
3 126 127 128
3 94 129 130
3 85 131 132
3 99 133 134
3 110 135 136
3 103 137 138
3 85 139 140
3 141 142 143
3 144 145 146
3 147 148 149
3 150 151 152
3 153 154 155
3 156 157 158
3 159 160 161
3 162 163 164
3 165 166 167
3 168 169 170
3 171 172 173
3 174 175 176
3 177 178 179
3 180 181 182
3 183 184 185
3 180 186 181
3 187 188 189
3 190 191 192
3 193 194 195
3 196 197 198
3 199 200 201
3 202 203 204
3 165 205 206
3 207 208 209
3 210 211 212
3 213 214 215
3 216 217 218
3 219 220 221
3 222 223 224
3 225 226 227
3 228 229 230
3 231 232 233
3 234 235 236
3 237 238 239
3 240 241 242
3 243 244 245
3 246 247 248
3 249 250 251
3 252 253 254
3 255 256 257
3 258 259 260
3 261 262 263
3 264 265 266
3 267 268 269
3 270 271 272
3 273 274 275
3 276 277 278
3 279 280 281
3 282 283 284
3 285 286 287
3 288 289 290
3 291 292 293
3 294 295 296
3 297 298 299
3 300 301 302
3 303 304 305
3 306 307 308
3 309 310 311
3 312 313 314
3 315 316 317
3 318 319 320
3 321 322 323
3 324 325 326
3 327 328 329
3 330 331 332
3 333 334 335
3 336 337 338
3 339 340 341
3 342 343 344
3 345 346 347
3 348 349 350
3 351 352 353
3 354 355 356
3 357 358 359
3 360 361 362
3 363 364 365
3 366 367 368
3 369 370 371
3 372 373 374
3 375 376 377
3 378 379 380
3 381 382 383
3 384 385 386
3 387 388 389
3 390 391 392
3 393 394 395
3 396 397 398
3 399 400 401
3 402 403 404
3 405 406 407
3 408 409 410
3 408 410 411
3 412 413 414
3 415 416 417
3 418 419 420
3 418 420 421
3 422 423 424
3 425 426 427
3 428 429 430
3 428 430 431
3 432 433 434
3 435 436 437
3 438 439 440
3 439 441 440
3 442 443 444
3 443 445 444
3 446 447 448
3 446 448 449
3 450 446 449
3 450 449 451
3 452 453 454
3 452 454 455
3 444 445 456
3 457 458 459
3 449 448 460
3 461 462 463
3 451 449 464
3 465 466 467
3 468 469 470
3 468 470 471
3 472 473 474
3 475 476 477
3 478 479 480
3 481 482 483
