ply
format ascii 1.0
comment Created by Blender 2.58 (sub 0) - www.blender.org, source file: 'sq4arehead.blend'
element vertex 44
property float x
property float y
property float z
property float nx
property float ny
property float nz
property float s
property float t
element face 72
property list uchar uint vertex_indices
end_header
1.477345 0.501423 0.000000 0.951231 0.295450 0.088382 0.663858 0.657187 
1.000000 -0.570858 0.776482 0.792688 -0.148717 0.591174 0.558304 0.594706 
0.848019 -0.570858 0.000000 0.963713 -0.262337 -0.048769 0.549693 0.681575 
1.000000 0.000000 -1.000000 0.626881 -0.112461 -0.770928 0.649992 0.780746 
1.000000 -2.968475 0.000000 0.793451 -0.604266 0.072329 0.263768 0.614666 
1.108032 -3.483953 0.939862 0.567553 -0.686728 0.454115 0.310945 0.552065 
-0.000001 -2.968475 1.000000 0.000000 -0.597980 0.801477 0.305626 0.489605 
-0.000000 -2.968475 0.000000 0.000000 -0.999969 -0.006073 0.129031 0.486044 
1.108033 -3.483953 -1.057132 0.517350 -0.677389 -0.522935 0.241172 0.668003 
-0.000000 -2.968475 -1.000000 -0.036866 -0.558397 -0.828730 0.000000 0.743696 
-1.108033 -3.483953 0.939862 -0.567553 -0.686728 0.454115 0.313133 0.427209 
-1.000000 -2.968475 0.000000 -0.792962 -0.604694 0.074038 0.268925 0.364092 
-0.000000 -2.968475 -1.000000 -0.036866 -0.558397 -0.828730 0.015266 0.224302 
-1.108033 -3.483953 -1.057132 -0.518082 -0.662465 -0.541002 0.250305 0.315378 
-0.848019 -0.570857 0.000000 -0.964263 -0.261147 -0.044404 0.556594 0.307145 
-1.000000 -0.570857 0.776482 -0.792688 -0.148717 0.591174 0.561730 0.393178 
-1.477345 0.501423 0.000000 -0.951231 0.295450 0.088382 0.667262 0.334369 
-1.000000 0.000000 -1.000000 -0.615314 -0.142399 -0.775262 0.655856 0.215275 
0.500000 1.000000 -1.000000 0.327006 0.636189 -0.698782 0.808227 0.742300 
0.000000 0.000000 -1.000000 -0.014405 -0.143162 -0.989563 0.736066 1.000000 
0.000000 1.000000 -1.000000 0.000000 0.597644 -0.801752 0.919312 0.778407 
-0.500000 1.000000 -1.000000 -0.327006 0.636189 -0.698782 0.809488 0.252619 
0.000000 0.000000 -1.000000 -0.014405 -0.143162 -0.989563 0.735952 0.000000 
0.000000 1.000000 -1.000000 0.000000 0.597644 -0.801752 0.919312 0.216534 
-0.500000 0.792464 0.716567 -0.399091 0.578570 0.711295 0.692182 0.442574 
-0.000000 -0.304289 1.000000 0.000000 0.048799 0.998779 0.582187 0.494043 
0.500000 0.792464 0.716567 0.399091 0.578570 0.711295 0.691165 0.548118 
0.000000 1.298054 0.000000 0.000000 0.991455 0.130345 0.890761 0.496715 
0.000000 0.878651 0.753828 0.000000 0.656941 0.753929 0.702082 0.495357 
0.850429 -1.446705 -0.589892 0.781579 0.026765 -0.623188 0.425090 0.767828 
-0.850429 -1.446705 -0.432413 -0.827723 0.026521 -0.560472 0.436774 0.241737 
-0.684568 -2.027405 0.845794 -0.605029 0.084628 0.791650 0.399771 0.418332 
0.684567 -2.027406 0.845794 0.605029 0.084628 0.791650 0.397612 0.563800 
-0.000000 -1.208651 -0.744098 -0.088870 -0.063417 -0.994018 0.429251 0.966806 
-0.000000 -1.208651 -0.744098 -0.088870 -0.063417 -0.994018 0.444615 0.041016 
-0.000000 -1.844405 0.811108 0.000000 0.008789 0.999939 0.419657 0.491430 
0.650416 0.929910 0.000000 0.471267 0.872890 0.126164 0.748770 0.612600 
-0.650415 0.929911 0.000000 -0.471267 0.872890 0.126164 0.750203 0.379546 
0.000000 0.255334 0.970775 0.000000 0.121036 0.992615 0.637876 0.494673 
-0.000000 -0.940209 0.905577 0.000000 -0.139103 0.990265 0.515962 0.492983 
0.910561 -1.769666 0.000000 0.992248 0.063753 0.106388 0.401039 0.671011 
-0.910561 -1.769666 0.000000 -0.993378 0.064333 0.095035 0.405929 0.311294 
-0.831785 -1.104247 0.811138 -0.790002 -0.135319 0.597949 0.503338 0.403726 
0.831785 -1.104248 0.811138 0.790002 -0.135319 0.597949 0.500016 0.582100 
3 0 1 2
3 0 2 3
4 4 5 6 7
4 8 4 7 9
4 7 6 10 11
4 12 7 11 13
3 14 15 16
3 17 14 16
3 18 3 19
3 20 18 19
3 18 0 3
3 21 22 17
3 16 21 17
3 21 23 22
3 24 15 25
3 24 16 15
3 26 25 1
3 0 26 1
3 18 20 27
3 28 26 27
3 23 21 27
3 24 28 27
3 3 29 19
3 29 8 9
3 13 30 12
3 30 17 22
3 31 10 6
3 5 32 6
3 32 5 4
3 8 29 4
3 29 3 2
3 10 31 11
3 17 30 14
3 30 13 11
3 9 33 29
3 33 19 29
3 22 34 30
3 34 12 30
3 6 35 31
3 35 6 32
3 27 36 18
3 36 0 18
3 0 36 26
3 36 27 26
3 16 37 21
3 37 27 21
3 27 37 24
3 37 16 24
3 25 38 24
3 38 28 24
3 28 38 26
3 38 25 26
3 35 39 31
3 39 25 31
3 25 39 32
3 39 35 32
3 4 40 32
3 40 2 32
3 2 40 29
3 40 4 29
3 14 41 31
3 41 11 31
3 11 41 30
3 41 14 30
3 15 42 25
3 42 31 25
3 32 43 25
3 43 1 25
3 1 43 2
3 43 32 2
3 31 42 14
3 42 15 14
