ply
format ascii 1.0
comment Created by Blender 2.58 (sub 0) - www.blender.org, source file: 'sq4arehead.blend'
element vertex 52
property float x
property float y
property float z
property float nx
property float ny
property float nz
property float s
property float t
element face 68
property list uchar uint vertex_indices
end_header
0.337888 -1.000000 -0.733923 0.591296 -0.440748 -0.675314 0.128874 0.616708 
0.000000 0.000000 -1.000000 -0.001831 0.000092 -0.999969 0.270403 0.673735 
0.847919 0.000000 -0.818842 0.721488 -0.043458 -0.691031 0.267433 0.575434 
-0.280523 -1.000000 -0.733923 -0.588458 -0.419599 -0.691092 0.127063 0.724371 
-0.847919 0.000000 -0.818842 -0.720206 -0.052278 -0.691763 0.268591 0.771259 
0.823887 -0.738043 0.000000 0.840022 -0.542192 -0.019227 0.171531 0.489923 
1.000000 -0.000000 0.000000 0.999634 -0.024934 -0.007172 0.270286 0.479290 
0.500000 -1.000000 0.000000 0.664663 -0.743034 0.078036 0.110556 0.502330 
0.750000 -0.500000 0.879228 0.698996 -0.294320 0.651723 0.180139 0.347244 
-0.823887 -0.738043 0.000000 -0.835994 -0.547685 -0.033479 0.173848 0.855831 
-0.500000 -1.000000 0.000000 -0.668691 -0.741386 0.055910 0.113392 0.842740 
-0.750000 -0.500000 0.879228 -0.699210 -0.294717 0.651326 0.181928 0.997469 
-1.000000 0.000000 0.000000 -0.999634 -0.024934 -0.007172 0.271680 0.866473 
0.429853 -0.923935 0.890882 0.568743 -0.578173 0.584979 0.090885 0.357633 
-0.000001 -1.141611 1.000000 0.000000 -0.733238 0.679952 0.008235 0.348610 
-0.000001 -1.141611 1.000000 0.000000 -0.733238 0.679952 0.011498 0.995999 
-0.429854 -0.923934 0.890882 -0.568743 -0.578173 0.584979 0.093550 0.986948 
-0.006189 0.280245 1.010196 -0.002167 0.179846 0.983673 0.811212 0.783443 
0.000000 0.994754 0.908869 0.000580 0.673940 0.738762 0.946004 0.690609 
-0.715097 0.703191 0.739158 -0.641987 0.468337 0.607013 0.830112 0.591050 
-0.847919 0.000000 0.879228 -0.724326 0.044252 0.688009 0.669582 0.672567 
0.715097 0.703191 0.739158 0.641377 0.467910 0.607990 1.000000 0.833564 
0.847919 -0.000001 0.879228 0.723563 0.044527 0.688772 0.868586 0.956778 
-0.750000 -0.500000 0.879228 -0.699210 -0.294717 0.651326 0.599370 0.739564 
-0.429854 -0.923934 0.890882 -0.568743 -0.578173 0.584979 0.561628 0.842854 
-0.250000 -0.500000 1.000000 -0.321329 -0.127506 0.938322 0.659305 0.823739 
-0.012379 -0.239212 1.386878 -0.021455 0.039491 0.998962 0.731233 0.839890 
-0.000001 -1.141611 1.000000 0.000000 -0.733238 0.679952 0.577577 0.948380 
0.250000 -0.500000 1.000000 0.315256 -0.119663 0.941404 0.722731 0.914881 
0.429853 -0.923935 0.890882 0.568743 -0.578173 0.584979 0.671204 1.000000 
0.750000 -0.500000 0.879228 0.698996 -0.294320 0.651723 0.781449 1.000000 
-0.006190 -0.513905 1.024330 -0.002655 -0.461196 0.887265 0.684530 0.872270 
-0.000000 -1.215078 0.318771 0.000000 -0.953887 0.300150 0.016128 0.463423 
-0.000000 -1.597622 -0.197716 0.000000 -0.971709 0.236091 0.000000 0.573364 
-0.000000 -1.597622 -0.197716 0.000000 -0.971709 0.236091 0.002001 0.772714 
-0.000000 -1.215078 0.318771 0.000000 -0.953887 0.300150 0.019147 0.882055 
-0.000000 -1.597622 -0.602315 -0.013672 -0.879086 -0.476424 0.022049 0.637827 
-0.000000 -0.798811 -0.890317 -0.031007 -0.199652 -0.979369 0.155603 0.674533 
-0.000000 -1.597622 -0.602315 -0.013672 -0.879086 -0.476424 0.023191 0.708162 
0.000000 0.994754 0.908869 0.000580 0.673940 0.738762 0.561628 0.944005 
0.000000 1.289744 0.000000 0.000000 0.999969 -0.005982 0.506021 0.788861 
-0.715097 0.703191 0.739158 -0.641987 0.468337 0.607013 0.423714 0.958774 
-0.853750 1.000000 0.000000 -0.744621 0.666860 0.027467 0.389842 0.845575 
0.000000 0.899424 -0.852046 0.000000 0.597552 -0.801813 0.402927 0.673125 
-0.715097 0.807630 -0.678772 -0.603137 0.511673 -0.611835 0.358564 0.770403 
0.715097 0.703191 0.739158 0.641377 0.467910 0.607990 0.423171 0.386364 
0.853750 1.000000 0.000000 0.744621 0.666860 0.027467 0.389294 0.500143 
0.000000 1.289744 0.000000 0.000000 0.999969 -0.005982 0.506012 0.556816 
0.000000 0.994754 0.908869 0.000580 0.673940 0.738762 0.561628 0.401010 
0.715097 0.807629 -0.678772 0.603137 0.511673 -0.611835 0.358044 0.575813 
-0.847919 0.000000 0.879228 -0.724326 0.044252 0.688009 0.270550 1.000000 
0.847919 -0.000001 0.879228 0.723563 0.044527 0.688772 0.269291 0.344869 
3 0 1 2
3 3 4 1
3 5 2 6
3 7 5 8
3 5 7 0
3 2 5 0
3 9 10 11
3 3 10 9
3 3 9 4
3 9 12 4
3 8 13 7
3 13 14 7
3 15 16 10
3 16 11 10
3 17 18 19
3 20 17 19
3 17 21 18
3 17 22 21
3 23 24 25
3 25 17 23
3 20 23 17
3 17 25 26
3 25 24 27
3 28 29 30
3 30 17 28
3 26 28 17
3 17 30 22
3 29 28 27
3 27 31 25
3 31 26 25
3 26 31 28
3 31 27 28
3 14 32 7
3 32 33 7
3 34 35 10
3 35 15 10
3 36 37 0
3 37 1 0
3 1 37 3
3 37 38 3
3 38 34 10
3 38 10 3
3 0 7 36
3 7 33 36
3 39 40 41
3 40 42 41
3 40 43 44
3 40 44 42
3 45 46 47
3 45 47 48
3 46 49 47
3 49 43 47
3 4 12 44
3 12 42 44
3 12 50 41
3 12 41 42
3 9 11 12
3 11 50 12
3 6 51 8
3 6 8 5
3 49 46 6
3 49 6 2
3 46 45 6
3 45 51 6
3 43 1 44
3 1 4 44
3 49 2 1
3 49 1 43
