ply
format ascii 1.0
comment Created by Blender 2.58 (sub 0) - www.blender.org, source file: 'land.blend'
element vertex 56
property float x
property float y
property float z
property float nx
property float ny
property float nz
property float s
property float t
element face 30
property list uchar uint vertex_indices
end_header
2.473588 -1.000000 -1.352630 1.000000 0.000000 0.000000 0.000000 0.400455 
2.473588 7.559706 -1.352630 1.000000 0.000000 0.000000 0.001839 1.000000 
2.473588 3.279852 1.907479 1.000000 0.000000 0.000000 0.229267 0.699527 
2.473589 7.559705 1.907479 1.000000 -0.000000 -0.000000 0.230186 0.999299 
0.736794 -1.000000 1.907479 0.000000 -1.000000 0.000000 0.279158 0.277248 
-1.000000 -1.000000 -1.352630 0.000000 -1.000000 0.000000 0.051184 0.399598 
2.473588 -1.000000 -1.352630 0.000000 -1.000000 0.000000 0.050438 0.156298 
-1.000000 -1.000000 1.907479 0.000000 -1.000000 0.000000 0.279531 0.398898 
-1.000000 3.279853 1.907479 -1.000000 0.000000 0.000000 0.999080 0.700227 
-1.000000 7.559706 -1.352630 -1.000000 0.000000 0.000000 0.769814 0.999299 
-1.000000 -1.000000 -1.352630 -1.000000 0.000000 0.000000 0.771653 0.399754 
-1.000000 -1.000000 1.907479 -1.000000 0.000000 0.000000 1.000000 0.400455 
-1.000000 7.559706 1.907479 -1.000000 0.000000 0.000000 0.998161 1.000000 
0.736794 7.559706 1.907479 0.000000 1.000000 -0.000000 0.525048 0.278759 
2.473588 7.559706 -1.352630 0.000000 1.000000 -0.000000 0.753768 0.399708 
-1.000000 7.559706 -1.352630 0.000000 1.000000 -0.000000 0.753022 0.156409 
-1.000000 7.559706 1.907479 0.000000 1.000000 -0.000000 0.524675 0.157109 
2.473589 7.559705 1.907479 0.000001 1.000000 0.000000 0.417213 0.196749 
2.473588 7.559706 -1.352630 0.000001 1.000000 0.000000 0.524237 0.398463 
0.736794 7.559706 1.907479 0.000001 1.000000 0.000000 0.524675 0.139733 
0.736794 3.279853 1.907479 0.000000 0.000000 1.000000 0.402106 0.700124 
2.473589 7.559705 1.907479 0.000000 0.000000 1.000000 0.281375 1.000000 
0.736794 7.559706 1.907479 0.000000 0.000000 1.000000 0.403025 0.999627 
2.473588 3.279852 1.907479 0.000000 0.000000 1.000000 0.280456 0.700497 
0.736794 1.139926 1.907479 -0.000000 0.000000 1.000000 0.401647 0.550372 
-1.000000 3.279853 1.907479 -0.000000 0.000000 1.000000 0.523756 0.699751 
-1.000000 -1.000000 1.907479 -0.000000 0.000000 1.000000 0.522837 0.400248 
0.736794 -1.000000 1.907479 -0.000000 0.000000 1.000000 0.401187 0.400621 
0.736794 3.279853 1.907479 -0.999991 0.000000 -0.004193 0.329795 0.098534 
0.736794 1.139926 1.907479 -0.999991 0.000000 -0.004193 0.330255 0.248421 
0.733749 0.476303 2.633702 -0.999991 0.000000 -0.004193 0.279531 0.295059 
2.473588 0.476303 2.633702 1.000000 0.000000 -0.000000 0.279531 0.503002 
2.473588 -1.000001 2.633702 1.000000 0.000000 0.000000 0.279214 0.399598 
2.473588 -1.000001 2.633702 -0.000001 -1.000000 -0.000000 0.875631 0.399334 
0.733749 -1.000000 2.633702 -0.000001 -1.000000 -0.000000 0.753768 0.399708 
2.473588 -1.000000 -1.352630 -0.000001 -1.000000 -0.000000 0.874775 0.120121 
0.733749 -1.000000 2.633702 0.000000 -1.000000 0.000000 0.753768 0.399708 
0.736794 -1.000000 1.907479 0.000000 -1.000000 0.000000 0.753825 0.348841 
2.473588 -1.000000 -1.352630 0.000000 -1.000000 0.000000 0.874775 0.120121 
2.473588 0.476303 2.633702 0.000000 0.000000 1.000000 0.279848 0.502148 
0.733749 0.476303 2.633702 0.000000 0.000000 1.000000 0.401711 0.501774 
0.733749 -1.000000 2.633702 0.000000 0.000000 1.000000 0.401394 0.398463 
2.473588 -1.000001 2.633702 0.000000 -0.000000 1.000000 0.279531 0.398837 
0.736794 -1.000000 1.907479 -0.999991 0.000000 -0.004193 0.330715 0.398307 
0.733749 -1.000000 2.633702 -0.999991 0.000000 -0.004193 0.279848 0.398463 
2.473588 3.279852 1.907479 0.000000 0.250761 0.968049 0.280456 0.700497 
0.736794 3.279853 1.907479 0.000000 0.250761 0.968049 0.402106 0.700124 
2.473588 0.476303 2.633702 0.000000 0.250761 0.968049 0.279848 0.502148 
0.736794 3.279853 1.907479 0.000000 0.250760 0.968049 0.402106 0.700124 
0.733749 0.476303 2.633702 0.000000 0.250760 0.968049 0.401711 0.501774 
2.473588 0.476303 2.633702 0.000000 0.250760 0.968049 0.279848 0.502148 
-1.000000 7.559706 1.907479 0.000000 0.000000 1.000000 0.524675 0.999254 
2.473588 7.559706 -1.352630 0.000000 0.000000 -1.000000 0.767974 1.000000 
2.473588 -1.000000 -1.352630 0.000000 0.000000 -1.000000 0.769814 0.400455 
-1.000000 -1.000000 -1.352630 0.000000 0.000000 -1.000000 0.526514 0.399708 
-1.000000 7.559706 -1.352630 0.000000 0.000000 -1.000000 0.524675 0.999254 
3 0 1 2
3 2 1 3
3 4 5 6
3 4 7 5
3 8 9 10
3 11 8 10
3 8 12 9
3 13 14 15
3 16 13 15
3 17 18 19
3 20 21 22
3 20 23 21
3 24 25 26
3 27 24 26
3 24 20 25
3 28 29 30
3 31 0 2
3 32 0 31
3 33 34 35
3 36 37 38
3 39 40 41
3 39 41 42
3 30 29 43
3 30 43 44
3 45 46 47
3 48 49 50
3 22 51 25
3 22 25 20
3 52 53 54
3 52 54 55
