ply
format ascii 1.0
comment Created by Blender 2.58 (sub 0) - www.blender.org, source file: 'land.blend'
element vertex 52
property float x
property float y
property float z
property float nx
property float ny
property float nz
property float s
property float t
element face 28
property list uchar uint vertex_indices
end_header
1.379261 1.279006 1.462180 1.000000 0.000000 0.000000 0.362008 0.833110 
1.379261 3.421632 -1.923514 1.000000 0.000000 0.000000 0.696879 0.560568 
1.379261 3.421632 1.462180 1.000000 0.000000 0.000000 0.362847 0.559544 
-1.412596 1.225733 1.462180 -1.000000 0.000000 -0.000000 0.009740 0.840937 
-1.412595 3.421633 -1.923514 -1.000000 0.000000 -0.000000 0.342927 0.559544 
-1.412595 0.049468 -1.923514 -1.000000 0.000000 -0.000000 0.344248 0.990095 
-1.412596 0.049468 1.462180 -1.000000 -0.000000 -0.000000 0.010201 0.991120 
-1.412595 3.421632 1.462180 -1.000000 0.000000 0.000000 0.008880 0.560568 
-0.345843 0.049467 1.462180 -0.000001 -1.000000 -0.000000 0.827687 0.207291 
-1.412596 0.049468 1.462180 -0.000001 -1.000000 -0.000000 0.932937 0.207738 
-1.412595 0.049468 -1.923514 -0.000001 -1.000000 -0.000000 0.931519 0.541784 
-0.345843 1.279006 1.462180 -0.000000 0.000000 1.000000 0.532214 0.267695 
1.379261 3.421632 1.462180 -0.000000 0.000000 1.000000 0.362847 0.541784 
-1.412595 3.421632 1.462180 -0.000000 0.000000 1.000000 0.638304 0.540939 
-1.412596 1.225733 1.462180 0.000000 0.000000 1.000000 0.637443 0.260571 
1.379261 1.279006 1.462180 0.000000 0.000000 1.000000 0.362008 0.268218 
1.379261 1.263832 0.885508 1.000000 -0.000001 0.000000 0.418896 0.835222 
1.379260 0.049467 0.885508 1.000000 -0.000001 0.000000 0.418420 0.990270 
1.379261 0.049467 -1.923514 1.000000 -0.000001 0.000000 0.695558 0.991120 
-0.345843 0.928957 1.462180 -0.000000 0.000000 1.000000 0.532077 0.223002 
-1.412596 0.049468 1.462180 -0.000000 0.000000 1.000000 0.636983 0.110387 
-0.345843 0.049467 1.462180 -0.000000 0.000000 1.000000 0.531732 0.110710 
1.379260 0.049467 0.885508 0.000000 -1.000000 0.000000 0.657240 0.263466 
-0.258164 0.049467 0.885508 0.000000 -1.000000 0.000000 0.818794 0.264151 
1.379261 0.049467 -1.923514 0.000000 -1.000000 0.000000 0.656063 0.540615 
-0.258164 1.293639 0.885508 0.000000 -0.999678 -0.025367 0.832982 0.180989 
1.379261 1.279006 1.462180 0.000000 -0.999678 -0.025367 0.889574 0.019325 
-0.345843 1.279006 1.462180 0.000000 -0.999678 -0.025367 0.889896 0.189532 
-0.345843 0.928957 1.462180 0.988638 0.000000 0.150316 0.908000 0.077065 
-0.258164 1.293639 0.885508 0.988638 0.000000 0.150316 0.965119 0.030678 
-0.345843 1.279006 1.462180 0.988638 0.000000 0.150316 0.908137 0.032372 
-0.258164 1.293639 0.885508 -0.018194 -0.999489 0.026300 0.832982 0.180989 
1.379261 1.263832 0.885508 -0.018194 -0.999489 0.026300 0.832677 0.019433 
1.379261 1.279006 1.462180 -0.018194 -0.999489 0.026300 0.889574 0.019325 
1.379261 1.263832 0.885508 1.000000 -0.000000 0.000000 0.418896 0.835222 
1.379261 0.049467 -1.923514 1.000000 0.000000 0.000000 0.695558 0.991120 
-1.412595 0.049468 -1.923514 -0.000000 -1.000000 -0.000000 0.931519 0.541784 
-0.258164 0.049467 0.885508 -0.000001 -1.000000 -0.000000 0.818794 0.264151 
-0.258164 0.049467 0.885508 0.988638 0.000000 0.150316 0.964632 0.189532 
-0.345843 0.049467 1.462180 0.988638 -0.000000 0.150316 0.907655 0.189357 
1.379261 1.263832 0.885508 -0.000000 0.000000 1.000000 0.811607 0.189056 
-0.258164 1.293639 0.885508 -0.000000 0.000000 1.000000 0.814917 0.027489 
-0.258164 0.049467 0.885508 -0.000000 0.000000 1.000000 0.656063 0.027976 
1.379260 0.049467 0.885508 0.000000 -0.000000 1.000000 0.656559 0.189532 
1.379261 3.421632 1.462180 0.000000 1.000000 -0.000000 0.714639 0.560389 
1.379261 3.421632 -1.923514 0.000000 1.000000 -0.000000 0.715664 0.894436 
-1.412595 3.421633 -1.923514 0.000000 1.000000 -0.000000 0.991120 0.893591 
-1.412595 3.421632 1.462180 0.000000 1.000000 0.000000 0.990095 0.559544 
1.379261 3.421632 -1.923514 0.000000 0.000000 -1.000000 0.342927 0.541784 
1.379261 0.049467 -1.923514 0.000000 0.000000 -1.000000 0.344248 0.111232 
-1.412595 0.049468 -1.923514 0.000000 0.000000 -1.000000 0.068791 0.110387 
-1.412595 3.421633 -1.923514 0.000000 0.000000 -1.000000 0.067470 0.540939 
3 0 1 2
3 3 4 5
3 6 3 5
3 3 7 4
3 8 9 10
3 11 12 13
3 14 11 13
3 11 15 12
3 16 17 18
3 19 14 20
3 21 19 20
3 19 11 14
3 22 23 24
3 25 26 27
3 28 29 30
3 31 32 33
3 1 0 34
3 35 1 34
3 24 23 36
3 37 8 10
3 29 28 38
3 28 39 38
3 40 41 42
3 40 42 43
3 44 45 46
3 44 46 47
3 48 49 50
3 48 50 51
