ply
format ascii 1.0
comment Created by Blender 2.58 (sub 0) - www.blender.org, source file: 'resy.blend'
element vertex 64
property float x
property float y
property float z
property float nx
property float ny
property float nz
property float s
property float t
element face 32
property list uchar uint vertex_indices
end_header
1.976909 -1.152161 -1.560897 1.000000 0.000000 0.000000 0.258837 0.559734 
1.976909 0.367765 -1.560897 1.000000 0.000000 0.000000 0.340812 0.391918 
1.976908 -1.152161 0.374189 1.000000 0.000000 0.000000 0.045190 0.455372 
1.976909 0.367765 0.374189 1.000000 -0.000000 -0.000000 0.127165 0.287556 
0.306918 -1.152161 0.374189 -0.000000 -1.000000 -0.000000 0.597846 0.785192 
-1.363072 -1.152161 -1.560897 -0.000000 -1.000000 -0.000000 0.359526 0.989773 
1.976909 -1.152161 -1.560897 -0.000000 -1.000000 -0.000000 0.360605 0.579360 
1.976908 -1.152161 0.374189 -0.000000 -1.000000 -0.000000 0.598386 0.579986 
-1.363072 -1.152161 1.132376 -1.000000 0.000000 0.000000 0.990643 0.559536 
-1.363072 0.367765 -1.560897 -1.000000 0.000000 0.000000 0.801913 0.229705 
-1.363072 -1.152161 -1.560897 -1.000000 0.000000 0.000000 0.988677 0.228595 
0.306919 0.367765 0.374189 0.000000 1.000000 0.000000 0.102514 0.784837 
1.976909 0.367765 -1.560897 0.000000 1.000000 0.000000 0.339777 0.990643 
-1.363072 0.367765 -1.560897 0.000000 1.000000 0.000000 0.340812 0.580230 
1.976909 0.367765 0.374189 0.000000 1.000000 0.000000 0.101997 0.990043 
0.306918 -1.152161 0.374189 0.000000 0.000000 1.000000 0.153416 0.007472 
1.976908 -1.152161 0.374189 0.000000 0.000000 1.000000 0.154046 0.212677 
1.976909 0.367765 0.374189 0.000000 0.000000 1.000000 0.340812 0.212105 
0.306919 0.367765 0.374189 0.000000 -0.000000 1.000000 0.340182 0.006899 
0.280185 -1.152161 1.132376 -0.000000 -1.000000 0.000000 0.691003 0.788722 
-1.363072 -1.152161 1.132376 0.000000 -1.000000 0.000000 0.690472 0.990643 
-1.363072 0.367765 1.132376 -1.000000 0.000000 -0.000000 0.803879 0.560646 
-1.363072 0.367765 1.132376 0.000000 1.000000 0.000000 0.009866 0.579396 
0.280186 0.367765 1.132376 0.000000 1.000000 0.000000 0.009357 0.781318 
-1.363072 0.367765 -1.560897 -0.999897 -0.014382 -0.000000 0.801913 0.229705 
-1.363072 0.367765 1.132376 -0.999897 -0.014382 -0.000000 0.803879 0.560646 
-1.373986 1.126529 -0.137777 -0.999897 -0.014382 -0.000000 0.709717 0.405127 
1.977968 0.387090 1.124176 0.999996 -0.002309 -0.001353 0.045404 0.244975 
1.976909 0.367765 0.374189 0.999996 -0.002309 -0.001353 0.127165 0.287556 
1.977968 1.126529 -0.137777 0.999996 -0.002309 -0.001353 0.224613 0.231392 
1.976909 0.367765 0.374189 0.999999 -0.001396 -0.000000 0.127165 0.287556 
1.976909 0.367765 -1.560897 0.999999 -0.001396 -0.000000 0.340812 0.391918 
1.977968 1.126529 -0.137777 0.999999 -0.001396 -0.000000 0.224613 0.231392 
1.976909 0.367765 0.374189 -0.000000 -1.000000 -0.000000 0.598386 0.149989 
-1.363072 0.367765 1.132376 -0.000000 -1.000000 -0.000000 0.690472 0.560646 
-1.363072 0.367765 -1.560897 -0.000000 -1.000000 -0.000000 0.359526 0.559776 
1.976909 0.367765 -1.560897 -0.000000 -1.000000 -0.000000 0.360605 0.149363 
0.280186 0.367765 1.132376 0.000000 0.858484 0.512841 0.009357 0.781318 
1.977968 1.126529 -0.137777 0.000000 0.858484 0.512841 0.164817 0.990332 
-1.373986 1.126529 -0.137777 0.000000 0.858484 0.512841 0.165855 0.578448 
-1.363072 0.367765 1.132376 0.000000 0.858484 0.512841 0.009866 0.579396 
0.280186 0.367765 1.132376 -0.007379 0.862772 0.505540 0.009357 0.781318 
1.977968 0.387090 1.124176 -0.007379 0.862772 0.505540 0.009837 0.989941 
1.977968 1.126529 -0.137777 -0.007379 0.862772 0.505540 0.164817 0.990332 
1.977968 0.387090 1.124176 0.011502 -0.999602 0.025741 0.690541 0.150101 
0.280186 0.367765 1.132376 0.011502 -0.999602 0.025741 0.691003 0.358725 
1.976909 0.367765 0.374189 0.011502 -0.999602 0.025741 0.598386 0.149989 
0.280186 0.367765 1.132376 -0.000000 -1.000000 0.000000 0.691003 0.358725 
-1.363072 0.367765 -1.560897 0.000000 0.882413 -0.470475 0.340812 0.580230 
-1.373986 1.126529 -0.137777 0.000000 0.882413 -0.470475 0.165855 0.578448 
1.977968 1.126529 -0.137777 0.000000 0.882413 -0.470475 0.164817 0.990332 
1.976909 0.367765 -1.560897 0.000000 0.882413 -0.470475 0.339777 0.990643 
0.306919 0.367765 0.374189 0.999379 -0.000000 0.035237 0.041514 0.212677 
0.280186 0.367765 1.132376 0.999379 -0.000000 0.035237 0.134701 0.212422 
0.280185 -1.152161 1.132376 0.999379 -0.000000 0.035237 0.134190 0.025656 
0.306918 -1.152161 0.374189 0.999379 -0.000000 0.035237 0.041002 0.025911 
0.280186 0.367765 1.132376 -0.000000 -0.000000 1.000000 0.896483 0.209881 
-1.363072 0.367765 1.132376 -0.000000 -0.000000 1.000000 0.897103 0.007960 
0.280185 -1.152161 1.132376 -0.000000 -0.000000 1.000000 0.709717 0.209308 
-1.363072 -1.152161 1.132376 0.000000 -0.000000 1.000000 0.710337 0.007387 
1.976909 0.367765 -1.560897 0.000000 0.000000 -1.000000 0.709717 0.989772 
1.976909 -1.152161 -1.560897 0.000000 0.000000 -1.000000 0.896483 0.990345 
-1.363072 0.367765 -1.560897 0.000000 0.000000 -1.000000 0.710976 0.579360 
-1.363072 -1.152161 -1.560897 0.000000 -0.000000 -1.000000 0.897743 0.579933 
3 0 1 2
3 2 1 3
3 4 5 6
3 7 4 6
3 8 9 10
3 11 12 13
3 14 12 11
3 15 16 17
3 18 15 17
3 4 19 5
3 19 20 5
3 8 21 9
3 22 23 13
3 23 11 13
3 24 25 26
3 27 28 29
3 30 31 32
3 33 34 35
3 36 33 35
3 37 38 39
3 40 37 39
3 41 42 43
3 44 45 46
3 47 34 33
3 48 49 50
3 50 51 48
3 52 53 54
3 52 54 55
3 56 57 58
3 57 59 58
3 60 61 62
3 61 63 62
