ply
format ascii 1.0
comment Created by Blender 2.58 (sub 0) - www.blender.org, source file: 'shell20.blend'
element vertex 232
property float x
property float y
property float z
property float nx
property float ny
property float nz
property float s
property float t
element face 135
property list uchar uint vertex_indices
end_header
1.483923 -1.992711 3.640418 0.000000 -1.000000 -0.000000 0.888611 0.415183 
-0.985117 -1.992711 3.640418 0.000000 -1.000000 -0.000000 0.888527 0.516893 
-0.985117 -1.992711 1.299836 0.000000 -1.000000 -0.000000 0.792109 0.516813 
1.969771 -1.992711 2.617239 0.000000 -1.000000 -0.000000 0.846479 0.395134 
3.952963 -1.992711 3.640418 -0.000000 -1.000000 -0.000001 0.888696 0.313473 
1.483923 -1.992711 3.640418 -0.000000 -1.000000 -0.000001 0.888611 0.415183 
1.969771 -1.992711 2.617239 -0.000000 -1.000000 -0.000001 0.846479 0.395134 
3.976561 -1.992711 2.516193 -0.000000 -1.000000 -0.000001 0.842385 0.312463 
-0.985117 -1.992710 -1.040746 0.000000 -1.000000 -0.000000 0.695691 0.516733 
1.952396 -1.992710 -1.031397 0.000000 -1.000000 -0.000000 0.696177 0.395725 
4.012185 1.000000 -1.000000 -1.000000 0.000000 0.000000 0.257882 0.285624 
4.012185 -3.895281 -1.000000 -1.000000 0.000000 0.000000 0.257966 0.083967 
4.012184 -3.895281 3.600813 -1.000000 0.000000 0.000000 0.447492 0.084046 
4.012185 0.999999 3.600813 -1.000000 0.000000 0.000000 0.447408 0.285703 
1.086220 -3.895281 3.600813 -0.000000 0.000000 -1.000000 0.217752 0.630886 
4.012185 0.999999 3.600813 -0.000000 0.000000 -1.000000 0.015726 0.750799 
4.012184 -3.895281 3.600813 -0.000000 0.000000 -1.000000 0.217382 0.751418 
1.086220 -3.895281 3.600813 0.000000 1.000000 0.000000 0.697965 0.864546 
4.012185 -3.895281 -1.000000 0.000000 1.000000 0.000000 0.887403 0.985211 
-1.000000 -3.895280 -1.000000 0.000000 1.000000 0.000000 0.887548 0.778739 
4.012184 -3.895281 3.600813 0.000000 1.000000 0.000000 0.697880 0.985078 
-1.000000 1.000000 3.600813 0.000000 0.000000 -1.000000 0.016359 0.544328 
1.056475 -1.951360 3.600813 0.000000 0.000000 -1.000000 0.137678 0.629415 
-0.698960 -1.951571 3.600813 -0.000000 -0.000000 -1.000000 0.137908 0.557102 
-1.000000 -3.895280 3.600813 0.000000 -0.000000 -1.000000 0.218015 0.544946 
-0.668165 -3.891261 3.600813 0.000000 -0.000000 -1.000000 0.217808 0.558615 
4.012185 -3.895281 -1.000000 -0.000000 0.000000 1.000000 0.447492 0.544946 
4.012185 1.000000 -1.000000 -0.000000 0.000000 1.000000 0.245837 0.544328 
-1.000000 -1.447640 -1.000000 -0.000000 0.000000 1.000000 0.346031 0.751108 
-1.000000 -3.895280 -1.000000 0.000000 0.000000 1.000000 0.446859 0.751418 
-1.000000 -3.895280 1.300407 1.000000 -0.000000 0.000000 0.573151 0.285561 
-1.000000 -1.081903 0.915736 1.000000 -0.000000 0.000000 0.589336 0.169713 
-1.000000 -1.447640 3.600813 1.000000 -0.000000 0.000000 0.478683 0.184456 
-1.000000 -3.895280 3.600813 1.000000 -0.000000 0.000000 0.478388 0.285284 
-1.000000 1.000000 1.300407 -0.000000 -1.000000 -0.000000 0.790541 0.750632 
4.012185 1.000000 -1.000000 -0.000000 -1.000000 -0.000000 0.695949 0.544081 
4.012185 0.999999 3.600813 -0.000000 -1.000000 -0.000000 0.885475 0.544238 
-1.000000 1.000000 3.600813 -0.000000 -1.000000 -0.000000 0.885304 0.750710 
-1.000000 -3.895280 3.600813 0.000000 1.000000 0.000000 0.698025 0.778606 
-1.000000 -3.895280 1.300407 0.000000 1.000000 0.000000 0.792787 0.778672 
-1.000000 -1.447640 3.600813 0.000000 0.000000 -1.000000 0.117187 0.544637 
-1.000000 -0.223820 -1.000000 -0.000000 0.000000 1.000000 0.295617 0.750954 
-1.000000 1.000000 -1.000000 0.000000 0.000000 1.000000 0.245203 0.750799 
-1.000000 -1.084400 -0.286709 1.000000 -0.000000 0.000000 0.638869 0.169961 
-1.000000 -3.895280 -1.000000 1.000000 -0.000000 0.000000 0.667914 0.285838 
-1.000000 -1.447640 -1.000000 1.000000 -0.000000 0.000000 0.668208 0.185010 
-1.000000 0.161603 0.891158 1.000000 -0.000000 0.000000 0.590498 0.118491 
-1.000000 1.000000 3.600813 1.000000 -0.000000 0.000000 0.478978 0.083628 
-1.000000 1.000000 1.300407 1.000000 -0.000000 0.000000 0.573740 0.083905 
-1.000000 -0.223820 -1.000000 1.000000 -0.000000 0.000000 0.668356 0.134596 
-1.000000 0.173845 -0.289529 1.000000 -0.000000 0.000000 0.639136 0.118129 
-1.000000 1.000000 0.150203 1.000000 -0.000000 0.000000 0.621122 0.084043 
-1.000000 1.000000 -1.000000 1.000000 -0.000000 0.000000 0.668503 0.084182 
-1.000000 1.000000 -1.000000 -0.000000 -1.000000 -0.000000 0.695778 0.750553 
-1.000000 1.000000 0.150203 -0.000000 -1.000000 -0.000000 0.743159 0.750592 
2.039626 -2.860776 2.238007 -0.998627 -0.051912 0.000000 0.058248 0.276558 
1.995931 -2.020422 -0.801993 -0.998627 -0.051912 0.000000 0.023682 0.151314 
2.091419 -3.856776 -0.801993 -0.998627 -0.051912 0.000000 0.099329 0.151346 
2.089460 -3.819143 2.865482 -0.998627 -0.051912 0.000000 0.923971 0.285103 
2.080291 -3.642815 2.865482 -0.998627 -0.051912 0.000000 0.916708 0.285189 
2.091419 -3.856776 -0.801993 -0.998627 -0.051912 0.000000 0.923731 0.134017 
2.071122 -3.466486 2.865482 -0.998627 -0.051912 0.000000 0.909445 0.285275 
2.069763 -3.440345 2.655953 -0.998627 -0.051912 0.000000 0.908266 0.276657 
2.069763 -3.440345 2.655953 -0.998627 -0.051912 0.000000 0.919824 0.687389 
2.060594 -3.264016 2.655953 -0.998627 -0.051912 0.000000 0.912663 0.688605 
2.091419 -3.856776 -0.801993 -0.998627 -0.051912 0.000000 0.912872 0.544081 
2.060594 -3.264016 2.655953 -0.998627 -0.051912 0.000000 0.917085 0.923130 
2.059373 -3.240532 2.457326 -0.998627 -0.051912 0.000000 0.914736 0.915233 
2.091419 -3.856776 -0.801993 -0.998627 -0.051912 0.000000 0.916851 0.778606 
2.059373 -3.240532 2.457326 -0.998627 -0.051912 0.000000 0.073888 0.285600 
2.050204 -3.064203 2.457326 -0.998627 -0.051912 0.000000 0.066624 0.285597 
2.048795 -3.037106 2.238007 -0.998627 -0.051912 0.000000 0.065511 0.276561 
2.039626 -2.860776 2.238007 0.998627 0.051912 0.000000 0.946318 0.778606 
2.038726 -2.843470 1.989244 0.998627 0.051912 0.000000 0.944273 0.788673 
1.995931 -2.020422 -0.801993 0.998627 0.051912 0.000000 0.946300 0.908532 
2.038726 -2.843470 1.989244 -0.998627 -0.051912 0.000000 0.922853 0.432340 
2.029558 -2.667141 1.989244 -0.998627 -0.051912 0.000000 0.915884 0.430292 
1.995931 -2.020422 -0.801993 -0.998627 -0.051912 0.000000 0.922733 0.312463 
2.029558 -2.667141 1.989244 0.998627 0.051912 0.000000 0.738525 0.057640 
2.026898 -2.615999 1.704422 0.998627 0.051912 0.000000 0.737902 0.069544 
1.995931 -2.020422 -0.801993 0.998627 0.051912 0.000000 0.738257 0.175668 
2.026898 -2.615999 1.704422 -0.998627 -0.051912 0.000000 0.881078 0.178199 
2.017730 -2.439670 1.704422 -0.998627 -0.051912 0.000000 0.874006 0.176539 
1.995931 -2.020422 -0.801993 -0.998627 -0.051912 0.000000 0.880783 0.072075 
2.017730 -2.439670 1.704422 0.998627 0.051912 0.000000 0.981696 0.535428 
2.016348 -2.413101 1.495884 0.998627 0.051912 0.000000 0.981360 0.544082 
1.995931 -2.020422 -0.801993 0.998627 0.051912 0.000000 0.981718 0.640112 
2.016348 -2.413101 1.495884 -0.998627 -0.051912 0.000000 0.954172 0.640112 
2.007180 -2.236772 1.495884 -0.998627 -0.051912 0.000000 0.947012 0.638889 
1.995931 -2.020422 -0.801993 -0.998627 -0.051912 0.000000 0.954163 0.544081 
2.007180 -2.236772 1.495884 -0.998627 -0.051943 0.000000 0.986406 0.407540 
2.005098 -2.196751 1.198006 -0.998627 -0.051943 0.000000 0.985897 0.395170 
1.995931 -2.020422 -0.801993 -0.998627 -0.051943 0.000000 0.986271 0.312463 
2.005098 -2.196751 1.198006 -0.998627 -0.051912 0.000000 0.143902 0.107272 
1.995929 -2.020423 1.198006 -0.998627 -0.051912 0.000000 0.136638 0.107269 
1.995931 -2.020422 -0.801993 -0.998627 -0.051912 0.000000 0.136673 0.024881 
4.002400 -2.092894 1.198009 0.998627 0.051912 0.000000 0.986153 0.092990 
4.004481 -2.132915 1.495887 0.998627 0.051912 0.000000 0.985638 0.080620 
3.993232 -1.916565 -0.801991 0.998627 0.051912 0.000000 0.985826 0.175697 
4.013649 -2.309244 1.495887 -0.376629 -0.914182 -0.149632 0.062669 0.029440 
3.995286 -2.335813 1.704424 -0.376629 -0.914182 -0.149632 0.063512 0.020856 
3.973486 -1.916565 -0.801991 -0.376629 -0.914182 -0.149632 0.063374 0.124126 
-0.630969 -3.905981 3.646577 0.000000 -0.894406 0.447188 0.668431 0.735976 
-1.005811 -3.905978 -1.056475 -0.577349 -0.577349 -0.577349 0.474680 0.751257 
4.023459 -3.905975 -1.056469 0.577349 -0.577349 -0.577349 0.474852 0.544081 
1.150252 1.041003 3.646583 0.000000 0.707083 0.707083 0.476895 0.867423 
4.023455 1.041008 -1.056466 0.577349 0.577349 -0.577319 0.670547 0.985918 
-1.005815 1.041004 -1.056472 -0.577349 0.577349 -0.577349 0.670692 0.778742 
4.023452 -3.905978 3.646583 0.577349 -0.577349 0.577349 0.668590 0.544242 
1.043028 -3.905980 3.646579 0.000000 -0.894406 0.447188 0.668488 0.667017 
2.824249 1.041004 3.646585 0.000000 0.707083 0.707083 0.476847 0.936382 
4.023448 1.041005 3.646586 0.577319 0.577349 0.577349 0.476812 0.985782 
-0.630969 -3.905981 3.646577 0.000000 -0.894406 0.447188 0.449036 0.970964 
-0.630971 -1.988366 3.646578 0.000000 0.000000 1.000000 0.370042 0.970722 
-1.005818 -3.905982 3.646577 -0.577349 -0.577349 0.577319 0.448989 0.986406 
1.150252 1.041003 3.646583 0.000000 0.707083 0.707083 0.245476 0.896964 
-1.005822 1.041002 3.646579 -0.577349 0.577349 0.577349 0.245203 0.985781 
1.043026 -1.988365 3.646581 0.000000 0.000000 1.000000 0.370254 0.901764 
4.023452 -3.905978 3.646583 0.577349 -0.577349 0.577349 0.449624 0.779231 
4.023448 1.041005 3.646586 0.577319 0.577349 0.577349 0.245839 0.778606 
2.824249 1.041004 3.646585 0.000000 0.707083 0.707083 0.245687 0.828005 
1.043028 -3.905980 3.646579 0.000000 -0.894406 0.447188 0.449248 0.902006 
1.975221 -1.991974 2.614541 0.000000 1.000000 0.000000 0.295748 0.435264 
-0.994705 -1.991973 -1.067072 0.000000 1.000000 0.000000 0.447492 0.313027 
-0.994712 -1.991976 3.639158 0.000000 1.000000 0.000000 0.253627 0.312891 
1.975226 -1.991971 -1.067068 0.000000 1.000000 0.000000 0.447406 0.435371 
3.962709 -1.991973 3.639164 0.000000 1.000000 0.000000 0.253483 0.517107 
3.962710 -1.991972 2.523664 0.000000 1.000000 0.000000 0.299434 0.517140 
-1.005813 -1.432487 -1.056473 -0.707083 0.000000 -0.707083 0.116122 0.778918 
4.023455 1.041008 -1.056466 0.577349 0.577349 -0.577319 0.013594 0.985781 
4.023459 -3.905975 -1.056469 0.577349 -0.577349 -0.577349 0.217379 0.986406 
-1.005811 -3.905978 -1.056475 -0.577349 -0.577349 -0.577349 0.218015 0.779231 
-1.005818 -3.905982 3.646577 -0.577349 -0.577349 0.577319 0.668418 0.751418 
-1.005814 -3.905979 1.295051 -0.707083 -0.707083 0.000000 0.571549 0.751337 
-1.005818 1.041003 1.295053 -0.707083 0.707083 0.000000 0.573825 0.778674 
-1.005822 1.041002 3.646579 -0.577349 0.577349 0.577349 0.476958 0.778606 
-1.005820 -1.432490 3.646578 -0.707083 0.000000 0.707083 0.347096 0.986093 
-1.005818 0.163169 0.908645 -1.000000 0.000000 0.000000 0.555647 0.480684 
-1.005820 -1.432490 3.646578 -0.707083 0.000000 0.707083 0.668461 0.415000 
-1.005822 1.041002 3.646579 -0.577349 0.577349 0.577349 0.668418 0.516893 
-1.005818 1.041003 1.295053 -0.707083 0.707083 0.000000 0.571549 0.516852 
-1.005816 -1.073577 0.908644 -1.000000 0.000000 0.000000 0.555668 0.429738 
-1.005814 -1.073576 -0.267118 -1.000000 0.000000 0.000000 0.507233 0.429717 
-1.005811 -3.905978 -1.056475 -0.577349 -0.577349 -0.577349 0.474765 0.313026 
-1.005814 -3.905979 1.295051 -0.707083 -0.707083 0.000000 0.571634 0.313066 
-1.005813 -1.432487 -1.056473 -0.707083 0.000000 -0.707083 0.474723 0.414919 
-1.005814 -0.195741 -1.056473 -0.707083 0.000000 -0.707083 0.065176 0.778762 
-1.005815 1.041004 -1.056472 -0.577349 0.577349 -0.577349 0.014230 0.778606 
-1.005817 1.041004 0.119290 -0.707083 0.707083 0.000000 0.622259 0.778708 
-1.005815 0.163170 -0.267118 -1.000000 0.000000 0.000000 0.507212 0.480664 
-1.005814 -0.195741 -1.056473 -0.707083 0.000000 -0.707083 0.474702 0.465865 
-1.005817 1.041004 0.119290 -0.707083 0.707083 0.000000 0.523115 0.516832 
-1.005815 1.041004 -1.056472 -0.577349 0.577349 -0.577349 0.474680 0.516812 
-1.005818 -3.905982 3.646577 -0.577349 -0.577349 0.577319 0.668503 0.313107 
4.023448 1.041005 3.646586 0.577319 0.577349 0.577349 0.024278 0.312788 
4.023452 -3.905978 3.646583 0.577349 -0.577349 0.577349 0.023682 0.516573 
4.023455 1.041008 -1.056466 0.577349 0.577349 -0.577319 0.218015 0.313354 
4.023459 -3.905975 -1.056469 0.577349 -0.577349 -0.577349 0.217419 0.517140 
4.002400 -2.092894 1.198009 0.000000 0.000000 1.000000 0.958450 0.093309 
3.993230 -1.916566 1.198009 0.000000 0.000000 1.000000 0.951176 0.093307 
2.005098 -2.196751 1.198006 0.000000 0.000000 1.000000 0.958433 0.175697 
1.995929 -2.020423 1.198006 0.000000 0.000000 1.000000 0.951159 0.175696 
4.004481 -2.132915 1.495887 -0.051454 0.989715 0.133305 0.765713 0.175668 
4.002400 -2.092894 1.198009 -0.051454 0.989715 0.133305 0.777994 0.175591 
2.007180 -2.236772 1.495884 -0.051454 0.989715 0.133305 0.765746 0.093391 
2.005098 -2.196751 1.198006 -0.051454 0.989715 0.133305 0.778026 0.093314 
4.013649 -2.309244 1.495887 0.000000 0.000000 1.000000 0.958450 0.202887 
4.004481 -2.132915 1.495887 0.000000 0.000000 1.000000 0.951176 0.202885 
2.007180 -2.236772 1.495884 0.000000 0.000000 1.000000 0.951159 0.285273 
2.016348 -2.413101 1.495884 0.000000 0.000000 1.000000 0.958433 0.285275 
4.015031 -2.335813 1.704424 -0.051485 0.990600 0.126530 0.090700 0.124126 
4.013649 -2.309244 1.495887 -0.051485 0.990600 0.126530 0.099297 0.124075 
2.017730 -2.439670 1.704422 -0.051485 0.990600 0.126530 0.090732 0.041849 
2.016348 -2.413101 1.495884 -0.051485 0.990600 0.126530 0.099329 0.041798 
4.006575 -2.512141 1.704424 0.000000 0.000000 1.000000 0.183532 0.025609 
3.997406 -2.335813 1.704424 0.000000 0.000000 1.000000 0.176259 0.025607 
2.026898 -2.615999 1.704422 0.000000 0.000000 1.000000 0.183553 0.107272 
2.017730 -2.439670 1.704422 0.000000 0.000000 1.000000 0.176280 0.107270 
4.007113 -2.563283 1.989246 -0.051607 0.982849 0.176946 0.695691 0.175668 
4.004455 -2.512141 1.704424 -0.051607 0.982849 0.176946 0.707437 0.175566 
2.026898 -2.615999 1.704422 -0.051607 0.982849 0.176946 0.707468 0.094103 
2.029558 -2.667141 1.989244 -0.051607 0.982849 0.176946 0.695723 0.094204 
4.010580 -2.739612 1.989246 0.000000 0.000000 1.000000 0.923933 0.025487 
4.001410 -2.563283 1.989246 0.000000 0.000000 1.000000 0.916660 0.025486 
2.029558 -2.667141 1.989244 0.000000 0.000000 1.000000 0.916698 0.106827 
2.038726 -2.843470 1.989244 0.000000 0.000000 1.000000 0.923971 0.106829 
4.017182 -2.756919 2.238008 -0.052309 0.996185 0.069491 0.947012 0.748794 
4.016283 -2.739612 1.989246 -0.052309 0.996185 0.069491 0.957264 0.748764 
2.039626 -2.860776 2.238007 -0.052309 0.996185 0.069491 0.947044 0.667330 
2.038726 -2.843470 1.989244 -0.052309 0.996185 0.069491 0.957295 0.667300 
3.984936 -2.933249 2.238008 0.000000 0.000000 1.000000 0.218015 0.024884 
3.975768 -2.756919 2.238008 0.000000 0.000000 1.000000 0.210742 0.024882 
2.039626 -2.860776 2.238007 0.000000 0.000000 1.000000 0.210856 0.104754 
1.987635 -3.037106 2.238007 0.000000 0.000000 1.000000 0.217998 0.107272 
4.011316 -2.960346 2.457329 -0.052461 0.991028 0.122776 0.023682 0.124126 
4.009907 -2.933249 2.238008 -0.052461 0.991028 0.122776 0.032724 0.124074 
2.048795 -3.037106 2.238007 -0.052461 0.991028 0.122776 0.032755 0.043288 
2.050204 -3.064203 2.457326 -0.052461 0.991028 0.122776 0.023714 0.043340 
3.995514 -3.136675 2.457329 0.000000 0.000000 1.000000 0.980779 0.778607 
3.986345 -2.960346 2.457329 0.000000 0.000000 1.000000 0.973506 0.778606 
2.059373 -3.240532 2.457326 0.000000 0.000000 1.000000 0.980894 0.858479 
2.050204 -3.064203 2.457326 0.000000 0.000000 1.000000 0.973620 0.858478 
4.021706 -3.160159 2.655955 -0.052492 0.991668 0.117557 0.950041 0.500289 
4.020485 -3.136675 2.457329 -0.052492 0.991668 0.117557 0.958229 0.500245 
2.059373 -3.240532 2.457326 -0.052492 0.991668 0.117557 0.958260 0.419458 
2.060594 -3.264016 2.655953 -0.052492 0.991668 0.117557 0.950072 0.419503 
4.005904 -3.336488 2.655955 0.000000 0.000000 1.000000 0.980779 0.885669 
3.996735 -3.160159 2.655955 0.000000 0.000000 1.000000 0.973506 0.885668 
2.069763 -3.440345 2.655953 0.000000 0.000000 1.000000 0.980894 0.965541 
2.060594 -3.264016 2.655953 0.000000 0.000000 1.000000 0.973620 0.965540 
4.007263 -3.362628 2.865484 -0.053133 0.990844 0.123936 0.950041 0.392270 
4.005904 -3.336488 2.655955 -0.053133 0.990844 0.123936 0.958679 0.392220 
2.069763 -3.440345 2.655953 -0.053133 0.990844 0.123936 0.958709 0.312463 
2.071122 -3.466486 2.865482 -0.053133 0.990844 0.123936 0.950072 0.312513 
4.004127 -3.538957 2.865484 0.000000 0.000000 1.000000 0.812590 0.098809 
4.007482 -3.362628 2.865484 0.000000 0.000000 1.000000 0.805345 0.098270 
2.071122 -3.466486 2.865482 0.000000 0.000000 1.000000 0.805214 0.178151 
2.080291 -3.642815 2.865482 0.000000 0.000000 1.000000 0.812488 0.178175 
4.013078 -3.715286 2.865484 0.000000 0.000000 1.000000 0.819863 0.098842 
2.089460 -3.819143 2.865482 0.000000 0.000000 1.000000 0.819761 0.178199 
2.091419 -3.856776 -0.801993 0.000000 0.000000 -1.000000 0.881078 0.205387 
1.995931 -2.020422 -0.801993 0.000000 0.000000 -1.000000 0.805329 0.205403 
3.932072 -1.916565 -0.801991 0.000000 0.000000 -1.000000 0.805214 0.285275 
4.027560 -3.752918 -0.801991 0.000000 0.000000 -1.000000 0.880963 0.285259 
3.993230 -1.916566 1.198009 -0.051912 0.998627 0.000000 0.777968 0.285275 
3.993232 -1.916565 -0.801991 -0.051912 0.998627 0.000000 0.778026 0.202888 
1.995931 -2.020422 -0.801993 -0.051912 0.998627 0.000000 0.695749 0.202856 
1.995929 -2.020423 1.198006 -0.051912 0.998627 0.000000 0.695691 0.285242 
4.003747 -3.715286 2.865484 0.053621 -0.998505 0.009644 0.136844 0.134460 
2.089460 -3.819143 2.865482 0.054170 -0.998474 0.009369 0.215701 0.134521 
2.030258 -3.856776 -0.801993 0.053011 -0.998535 0.009980 0.218015 0.285600 
4.005706 -3.752918 -0.801991 0.052492 -0.998566 0.010254 0.136638 0.285536 
4 0 1 2 3
4 4 5 6 7
4 3 2 8 9
4 10 11 12 13
3 14 15 16
3 17 18 19
3 20 18 17
3 21 15 22
3 22 15 14
3 23 21 22
3 14 24 25
3 25 24 23
3 26 27 28
3 29 26 28
4 30 31 32 33
3 34 35 36
3 34 36 37
3 38 17 39
3 39 17 19
3 21 23 40
3 40 23 24
3 28 27 41
3 41 27 42
3 43 30 44
3 31 30 43
3 43 44 45
3 46 47 32
3 48 47 46
3 46 32 31
4 45 49 50 43
4 50 51 48 46
4 49 52 51 50
3 53 35 54
3 54 35 34
3 55 56 57
3 58 59 60
3 59 61 60
3 61 62 60
3 63 64 65
3 66 67 68
3 69 70 57
3 70 71 57
3 71 55 57
3 72 73 74
3 75 76 77
3 78 79 80
3 81 82 83
3 84 85 86
3 87 88 89
3 90 91 92
3 93 94 95
3 96 97 98
3 99 100 101
3 102 103 104
3 105 106 107
3 108 109 104
3 109 102 104
3 105 110 106
3 110 111 106
3 112 113 114
3 113 115 116
3 117 118 119
3 120 117 119
3 121 118 117
3 122 123 124
3 122 125 123
3 126 127 124
3 127 122 124
3 128 129 130
3 131 128 130
3 132 133 102
3 133 103 102
3 134 135 105
3 116 136 113
3 136 114 113
3 137 138 139
3 140 137 139
3 137 141 138
3 142 143 144
3 141 142 144
3 142 145 143
3 128 146 129
3 146 147 129
3 107 148 105
3 148 134 105
3 142 149 150
3 142 150 145
3 149 151 152
3 149 152 150
3 137 140 151
3 137 151 149
3 153 138 144
3 138 141 144
3 115 113 117
3 115 117 120
3 154 155 156
3 155 157 156
3 158 159 160
3 159 161 160
3 162 163 164
3 163 165 164
3 166 167 168
3 166 168 169
3 170 171 172
3 171 173 172
3 174 175 176
3 175 177 176
3 178 179 180
3 178 180 181
3 182 183 184
3 182 184 185
3 186 187 188
3 187 189 188
3 190 191 192
3 190 192 193
3 194 195 196
3 194 196 197
3 198 199 200
3 199 201 200
3 202 203 204
3 202 204 205
3 206 207 208
3 207 209 208
3 210 211 212
3 210 212 213
3 214 215 216
3 214 216 217
3 218 214 219
3 214 217 219
3 220 221 222
3 220 222 223
3 224 225 226
3 224 226 227
3 228 229 230
3 228 230 231
