ply
format ascii 1.0
comment Created by Blender 2.58 (sub 0) - www.blender.org, source file: 'shell.blend'
element vertex 168
property float x
property float y
property float z
property float nx
property float ny
property float nz
property float s
property float t
element face 101
property list uchar uint vertex_indices
end_header
0.475057 1.078048 0.658738 -0.998627 -0.051912 0.000000 0.000000 1.000000 
0.431362 1.918402 -2.381261 -0.998627 -0.051912 0.000000 1.000000 1.000000 
0.526850 0.082049 -2.381261 -0.998627 -0.051912 0.000000 1.000000 0.000000 
0.524890 0.119681 1.286214 -0.998627 -0.051912 0.000000 0.000000 1.000000 
0.515722 0.296010 1.286214 -0.998627 -0.051912 0.000000 1.000000 1.000000 
0.515722 0.296010 1.286214 -0.998627 -0.051912 0.000000 0.000000 1.000000 
0.506553 0.472339 1.286214 -0.998627 -0.051912 0.000000 1.000000 1.000000 
0.506553 0.472339 1.286214 -0.998627 -0.051912 0.000000 0.000000 1.000000 
0.505194 0.498479 1.076685 -0.998627 -0.051912 0.000000 1.000000 1.000000 
0.505194 0.498479 1.076685 -0.998627 -0.051912 0.000000 0.000000 1.000000 
0.496025 0.674808 1.076685 -0.998627 -0.051912 0.000000 1.000000 1.000000 
0.526850 0.082049 -2.381261 -0.998627 -0.051912 0.000000 1.000000 0.000000 
0.496025 0.674808 1.076685 -0.998627 -0.051912 0.000000 0.000000 1.000000 
0.494804 0.698292 0.878058 -0.998627 -0.051912 0.000000 1.000000 1.000000 
0.526850 0.082049 -2.381261 -0.998627 -0.051912 0.000000 1.000000 0.000000 
0.494804 0.698292 0.878058 -0.998627 -0.051912 0.000000 0.000000 1.000000 
0.485635 0.874621 0.878058 -0.998627 -0.051912 0.000000 1.000000 1.000000 
0.485635 0.874621 0.878058 -0.998627 -0.051912 0.000000 0.000000 1.000000 
0.484226 0.901719 0.658738 -0.998627 -0.051912 0.000000 1.000000 1.000000 
0.484226 0.901719 0.658738 -0.998627 -0.051912 0.000000 0.000000 1.000000 
0.475057 1.078048 0.658738 -0.998627 -0.051912 0.000000 1.000000 1.000000 
0.475057 1.078048 0.658738 0.998627 0.051912 0.000000 0.000000 1.000000 
0.474157 1.095355 0.409975 0.998627 0.051912 0.000000 1.000000 1.000000 
0.431362 1.918402 -2.381261 0.998627 0.051912 0.000000 1.000000 0.000000 
0.474157 1.095355 0.409975 -0.998627 -0.051912 0.000000 0.000000 1.000000 
0.464988 1.271684 0.409975 -0.998627 -0.051912 0.000000 1.000000 1.000000 
0.431362 1.918402 -2.381261 -0.998627 -0.051912 0.000000 1.000000 0.000000 
0.464988 1.271684 0.409975 0.998627 0.051912 0.000000 0.000000 1.000000 
0.462329 1.322826 0.125154 0.998627 0.051912 0.000000 1.000000 1.000000 
0.431362 1.918402 -2.381261 0.998627 0.051912 0.000000 1.000000 0.000000 
0.462329 1.322826 0.125154 -0.998627 -0.051912 0.000000 0.000000 1.000000 
0.453160 1.499154 0.125154 -0.998627 -0.051912 0.000000 1.000000 1.000000 
0.431362 1.918402 -2.381261 -0.998627 -0.051912 0.000000 1.000000 0.000000 
0.453160 1.499154 0.125154 0.998627 0.051912 0.000000 0.000000 1.000000 
0.451779 1.525723 -0.083385 0.998627 0.051912 0.000000 1.000000 1.000000 
0.431362 1.918402 -2.381261 0.998627 0.051912 0.000000 1.000000 0.000000 
0.451779 1.525723 -0.083385 -0.998627 -0.051912 0.000000 0.000000 1.000000 
0.442610 1.702052 -0.083385 -0.998627 -0.051912 0.000000 1.000000 1.000000 
0.442610 1.702052 -0.083385 -0.998627 -0.051943 0.000000 0.000000 1.000000 
0.440529 1.742073 -0.381262 -0.998627 -0.051943 0.000000 1.000000 1.000000 
0.431362 1.918402 -2.381261 -0.998627 -0.051943 0.000000 1.000000 0.000000 
0.440529 1.742073 -0.381262 -0.998627 -0.051912 0.000000 0.000000 1.000000 
0.431359 1.918402 -0.381262 -0.998627 -0.051912 0.000000 1.000000 1.000000 
2.437830 1.845930 -0.381260 0.998627 0.051912 0.000000 0.000000 1.000000 
2.439911 1.805910 -0.083382 0.998627 0.051912 0.000000 1.000000 1.000000 
2.428663 2.022259 -2.381260 0.998627 0.051912 0.000000 1.000000 0.000000 
2.449080 1.629581 -0.083382 -0.376629 -0.914182 -0.149632 0.000000 1.000000 
2.430716 1.603012 0.125155 -0.376629 -0.914182 -0.149632 1.000000 1.000000 
2.408917 2.022259 -2.381260 -0.376629 -0.914182 -0.149632 1.000000 0.000000 
-2.195539 0.032843 2.067308 0.000000 -0.894406 0.447188 0.250001 0.375001 
-2.570381 0.032846 -2.635744 -0.577349 -0.577349 -0.577349 0.500001 0.500001 
2.458889 0.032849 -2.635738 0.577349 -0.577349 -0.577349 0.500001 0.250001 
-0.414318 4.979828 2.067314 0.000000 0.707083 0.707083 0.250001 0.875000 
2.458885 4.979833 -2.635735 0.577349 0.577349 -0.577319 0.500001 1.000000 
-2.570384 4.979829 -2.635741 -0.577349 0.577349 -0.577349 0.500001 0.750000 
2.458882 0.032846 2.067314 0.577349 -0.577349 0.577349 0.250001 0.250001 
-0.521542 0.032844 2.067310 0.000000 -0.894406 0.447188 0.250001 0.312501 
1.259680 4.979829 2.067316 0.000000 0.707083 0.707083 0.250001 0.937500 
2.458879 4.979830 2.067317 0.577319 0.577349 0.577349 0.250001 1.000000 
-2.195539 0.032843 2.067308 0.000000 -0.894406 0.447188 0.125001 0.250001 
-2.195540 1.950458 2.067309 0.000000 0.000000 1.000000 0.125001 0.125000 
-2.570387 0.032843 2.067308 -0.577349 -0.577349 0.577319 0.000000 0.250001 
-0.414318 4.979828 2.067314 0.000000 0.707083 0.707083 0.125000 0.000000 
-2.570391 4.979826 2.067310 -0.577349 0.577349 0.577349 0.000000 0.000000 
-0.521543 1.950459 2.067312 0.000000 0.000000 1.000000 0.187501 0.125000 
2.458879 4.979830 2.067317 0.577319 0.577349 0.577349 0.250001 0.000000 
1.259680 4.979829 2.067316 0.000000 0.707083 0.707083 0.187501 0.000000 
-0.521542 0.032844 2.067310 0.000000 -0.894406 0.447188 0.187501 0.250001 
0.410652 1.946851 1.035272 0.000000 1.000000 0.000000 0.500000 0.000000 
-2.559275 1.946851 -2.646340 0.000000 1.000000 0.000000 0.000000 1.000000 
-2.559281 1.946848 2.059889 0.000000 1.000000 0.000000 1.000000 1.000000 
0.410657 1.946853 -2.646337 0.000000 1.000000 0.000000 0.000000 0.000000 
2.398139 1.946851 2.059895 0.000000 1.000000 0.000000 1.000000 0.000000 
2.398140 1.946852 0.944396 0.000000 1.000000 0.000000 0.750000 0.000000 
-2.570383 2.506337 -2.635742 -0.707083 0.000000 -0.707083 0.750002 0.125001 
2.458885 4.979833 -2.635735 0.577349 0.577349 -0.577319 0.500001 0.000000 
-2.570381 0.032846 -2.635744 -0.577349 -0.577349 -0.577349 0.750002 0.250001 
-2.570387 0.032843 2.067308 -0.577349 -0.577349 0.577319 0.250001 0.500001 
-2.570384 0.032845 -0.284218 -0.707083 -0.707083 0.000000 0.375001 0.500001 
-2.570387 4.979828 -0.284216 -0.707083 0.707083 0.000000 0.375001 0.750000 
-2.570391 4.979826 2.067310 -0.577349 0.577349 0.577349 0.250001 0.750000 
-2.570389 2.506335 2.067309 -0.707083 0.000000 0.707083 0.000000 0.125000 
-2.570387 4.101994 -0.670624 -1.000000 0.000000 0.000000 0.375001 0.687500 
-2.570389 2.506335 2.067309 -0.707083 0.000000 0.707083 0.250001 0.625001 
-2.570385 2.865247 -0.670624 -1.000000 0.000000 0.000000 0.375001 0.625001 
-2.570384 2.865248 -1.846387 -1.000000 0.000000 0.000000 0.437501 0.625000 
-2.570383 2.506337 -2.635742 -0.707083 0.000000 -0.707083 0.500001 0.625000 
-2.570383 3.743083 -2.635742 -0.707083 0.000000 -0.707083 0.750002 0.062500 
-2.570384 4.979829 -2.635741 -0.577349 0.577349 -0.577349 0.750002 0.000000 
-2.570386 4.979829 -1.459978 -0.707083 0.707083 0.000000 0.437501 0.750000 
-2.570385 4.101995 -1.846386 -1.000000 0.000000 0.000000 0.437501 0.687500 
-2.570383 3.743083 -2.635742 -0.707083 0.000000 -0.707083 0.500001 0.687500 
2.437830 1.845930 -0.381260 0.000000 0.000000 1.000000 0.000000 1.000000 
2.428660 2.022259 -0.381260 0.000000 0.000000 1.000000 1.000000 1.000000 
0.440529 1.742073 -0.381262 0.000000 0.000000 1.000000 0.000000 0.000000 
0.431359 1.918402 -0.381262 0.000000 0.000000 1.000000 1.000000 0.000000 
2.439911 1.805910 -0.083382 -0.051454 0.989715 0.133305 0.000000 1.000000 
2.437830 1.845930 -0.381260 -0.051454 0.989715 0.133305 1.000000 1.000000 
0.442610 1.702052 -0.083385 -0.051454 0.989715 0.133305 0.000000 0.000000 
0.440529 1.742073 -0.381262 -0.051454 0.989715 0.133305 1.000000 0.000000 
2.449080 1.629581 -0.083382 0.000000 0.000000 1.000000 0.000000 1.000000 
2.439911 1.805910 -0.083382 0.000000 0.000000 1.000000 1.000000 1.000000 
0.442610 1.702052 -0.083385 0.000000 0.000000 1.000000 1.000000 0.000000 
0.451779 1.525723 -0.083385 0.000000 0.000000 1.000000 0.000000 0.000000 
2.450462 1.603012 0.125155 -0.051485 0.990600 0.126530 0.000000 1.000000 
2.449080 1.629581 -0.083382 -0.051485 0.990600 0.126530 1.000000 1.000000 
0.453160 1.499154 0.125154 -0.051485 0.990600 0.126530 0.000000 0.000000 
0.451779 1.525723 -0.083385 -0.051485 0.990600 0.126530 1.000000 0.000000 
2.442005 1.426683 0.125155 0.000000 0.000000 1.000000 0.000000 1.000000 
2.432836 1.603012 0.125155 0.000000 0.000000 1.000000 1.000000 1.000000 
0.462329 1.322826 0.125154 0.000000 0.000000 1.000000 0.000000 0.000000 
0.453160 1.499154 0.125154 0.000000 0.000000 1.000000 1.000000 0.000000 
2.442544 1.375541 0.409977 -0.051607 0.982849 0.176946 0.000000 1.000000 
2.439885 1.426683 0.125155 -0.051607 0.982849 0.176946 1.000000 1.000000 
0.462329 1.322826 0.125154 -0.051607 0.982849 0.176946 1.000000 0.000000 
0.464988 1.271684 0.409975 -0.051607 0.982849 0.176946 0.000000 0.000000 
2.446010 1.199212 0.409977 0.000000 0.000000 1.000000 0.000000 1.000000 
2.436841 1.375541 0.409977 0.000000 0.000000 1.000000 1.000000 1.000000 
0.464988 1.271684 0.409975 0.000000 0.000000 1.000000 1.000000 0.000000 
0.474157 1.095355 0.409975 0.000000 0.000000 1.000000 0.000000 0.000000 
2.452613 1.181906 0.658739 -0.052309 0.996185 0.069491 0.000000 1.000000 
2.451713 1.199212 0.409977 -0.052309 0.996185 0.069491 1.000000 1.000000 
0.475057 1.078048 0.658738 -0.052309 0.996185 0.069491 0.000000 0.000000 
0.474157 1.095355 0.409975 -0.052309 0.996185 0.069491 1.000000 0.000000 
2.420367 1.005576 0.658739 0.000000 0.000000 1.000000 0.000000 1.000000 
2.411198 1.181906 0.658739 0.000000 0.000000 1.000000 1.000000 1.000000 
0.475057 1.078048 0.658738 0.000000 0.000000 1.000000 1.000000 0.000000 
0.423065 0.901719 0.658738 0.000000 0.000000 1.000000 0.000000 0.000000 
2.446747 0.978478 0.878060 -0.052461 0.991028 0.122776 0.000000 1.000000 
2.445338 1.005576 0.658739 -0.052461 0.991028 0.122776 1.000000 1.000000 
0.484226 0.901719 0.658738 -0.052461 0.991028 0.122776 1.000000 0.000000 
0.485635 0.874621 0.878058 -0.052461 0.991028 0.122776 0.000000 0.000000 
2.430945 0.802150 0.878060 0.000000 0.000000 1.000000 0.000000 1.000000 
2.421776 0.978478 0.878060 0.000000 0.000000 1.000000 1.000000 1.000000 
0.494804 0.698292 0.878058 0.000000 0.000000 1.000000 0.000000 0.000000 
0.485635 0.874621 0.878058 0.000000 0.000000 1.000000 1.000000 0.000000 
2.457137 0.778665 1.076686 -0.052492 0.991668 0.117557 0.000000 1.000000 
2.455916 0.802150 0.878060 -0.052492 0.991668 0.117557 1.000000 1.000000 
0.494804 0.698292 0.878058 -0.052492 0.991668 0.117557 1.000000 0.000000 
0.496025 0.674808 1.076685 -0.052492 0.991668 0.117557 0.000000 0.000000 
2.441335 0.602337 1.076686 0.000000 0.000000 1.000000 0.000000 1.000000 
2.432166 0.778665 1.076686 0.000000 0.000000 1.000000 1.000000 1.000000 
0.505194 0.498479 1.076685 0.000000 0.000000 1.000000 0.000000 0.000000 
0.496025 0.674808 1.076685 0.000000 0.000000 1.000000 1.000000 0.000000 
2.442694 0.576196 1.286215 -0.053133 0.990844 0.123936 0.000000 1.000000 
2.441335 0.602337 1.076686 -0.053133 0.990844 0.123936 1.000000 1.000000 
0.505194 0.498479 1.076685 -0.053133 0.990844 0.123936 1.000000 0.000000 
0.506553 0.472339 1.286214 -0.053133 0.990844 0.123936 0.000000 0.000000 
2.439558 0.399867 1.286215 0.000000 0.000000 1.000000 0.000000 1.000000 
2.442912 0.576196 1.286215 0.000000 0.000000 1.000000 1.000000 1.000000 
0.506553 0.472339 1.286214 0.000000 0.000000 1.000000 1.000000 0.000000 
0.515722 0.296010 1.286214 0.000000 0.000000 1.000000 0.000000 0.000000 
2.448509 0.223538 1.286215 0.000000 0.000000 1.000000 0.000000 1.000000 
2.439558 0.399867 1.286215 0.000000 0.000000 1.000000 1.000000 1.000000 
0.524890 0.119681 1.286214 0.000000 0.000000 1.000000 0.000000 0.000000 
0.515722 0.296010 1.286214 0.000000 0.000000 1.000000 1.000000 0.000000 
0.526850 0.082049 -2.381261 0.000000 0.000000 -1.000000 0.000000 1.000000 
0.431362 1.918402 -2.381261 0.000000 0.000000 -1.000000 1.000000 1.000000 
2.367502 2.022259 -2.381260 0.000000 0.000000 -1.000000 1.000000 0.000000 
2.462991 0.185906 -2.381260 0.000000 0.000000 -1.000000 0.000000 0.000000 
2.428660 2.022259 -0.381260 -0.051912 0.998627 0.000000 0.000000 1.000000 
2.428663 2.022259 -2.381260 -0.051912 0.998627 0.000000 1.000000 1.000000 
0.431362 1.918402 -2.381261 -0.051912 0.998627 0.000000 1.000000 0.000000 
0.431359 1.918402 -0.381262 -0.051912 0.998627 0.000000 0.000000 0.000000 
2.439177 0.223538 1.286215 0.053621 -0.998505 0.009644 0.000000 1.000000 
0.524890 0.119681 1.286214 0.054170 -0.998474 0.009369 1.000000 1.000000 
0.465689 0.082049 -2.381261 0.053011 -0.998535 0.009980 1.000000 0.000000 
2.441136 0.185906 -2.381260 0.052492 -0.998566 0.010254 0.000000 0.000000 
3 0 1 2
3 3 4 2
3 5 6 2
3 7 8 2
3 9 10 11
3 12 13 14
3 15 16 2
3 17 18 2
3 19 20 2
3 21 22 23
3 24 25 26
3 27 28 29
3 30 31 32
3 33 34 35
3 36 37 32
3 38 39 40
3 41 42 26
3 43 44 45
3 46 47 48
3 49 50 51
3 52 53 54
3 55 56 51
3 56 49 51
3 52 57 53
3 57 58 53
3 59 60 61
3 60 62 63
3 64 55 65
3 66 64 65
3 67 55 64
3 68 69 70
3 68 71 69
3 72 73 70
3 73 68 70
3 74 75 51
3 76 74 51
3 77 78 49
3 78 50 49
3 79 80 52
3 63 81 60
3 81 61 60
3 82 83 80
3 79 82 80
3 82 84 83
3 85 50 78
3 84 85 78
3 85 86 50
3 74 87 75
3 87 88 75
3 54 89 52
3 89 79 52
3 85 90 91
3 85 91 86
3 90 89 54
3 90 54 91
3 82 79 89
3 82 89 90
3 77 83 78
3 83 84 78
3 62 60 64
3 62 64 66
3 65 55 75
3 55 51 75
3 92 93 94
3 93 95 94
3 96 97 98
3 97 99 98
3 100 101 102
3 100 102 103
3 104 105 106
3 105 107 106
3 108 109 110
3 109 111 110
3 112 113 114
3 112 114 115
3 116 117 118
3 116 118 119
3 120 121 122
3 121 123 122
3 124 125 126
3 124 126 127
3 128 129 130
3 128 130 131
3 132 133 134
3 133 135 134
3 136 137 138
3 136 138 139
3 140 141 142
3 141 143 142
3 144 145 146
3 144 146 147
3 148 149 150
3 148 150 151
3 152 153 154
3 153 155 154
3 156 157 158
3 156 158 159
3 160 161 162
3 160 162 163
3 164 165 166
3 164 166 167
