ply
format ascii 1.0
comment Created by Blender 2.58 (sub 0) - www.blender.org, source file: 'skyscr.blend'
element vertex 38
property float x
property float y
property float z
property float nx
property float ny
property float nz
property float s
property float t
element face 20
property list uchar uint vertex_indices
end_header
-2.399764 0.038753 -1.000000 -0.000000 0.000000 -1.000000 0.007834 0.300612 
-2.399763 2.684821 -1.000000 -0.000000 0.000000 -1.000000 0.214715 0.301328 
1.000000 0.038753 -1.000000 -0.000000 0.000000 -1.000000 0.008753 0.034804 
-2.399764 2.684821 1.000000 0.000000 -0.000000 1.000000 0.214715 0.301532 
-2.399764 0.038754 1.000000 0.000000 -0.000000 1.000000 0.007834 0.300817 
0.999999 0.038753 1.000000 0.000000 -0.000000 1.000000 0.008753 0.035009 
-1.000000 12.495577 1.000000 0.000000 0.000000 1.000000 0.982140 0.194745 
-0.977585 2.674944 1.000000 0.000000 0.000000 1.000000 0.214327 0.190337 
-0.977585 2.674944 -1.000000 -0.000000 -0.000000 -1.000000 0.214327 0.190133 
-1.000000 12.495577 -1.000000 -0.000000 -0.000000 -1.000000 0.982140 0.194540 
1.000000 12.495575 1.000000 1.000000 -0.000000 0.000000 0.048227 0.938394 
0.999999 0.038753 1.000000 1.000000 -0.000000 0.000000 0.973083 0.925912 
1.000000 0.038753 -1.000000 1.000000 -0.000000 0.000000 0.971078 0.777422 
-1.000000 12.495577 1.000000 -0.999997 -0.002282 -0.000000 0.060639 0.750080 
-0.977585 2.674944 -1.000000 -0.999997 -0.002282 -0.000000 0.789669 0.600753 
-0.977585 2.674944 1.000000 -0.999997 -0.002282 -0.000000 0.789837 0.749256 
1.000000 12.495577 -1.000000 1.000000 0.000000 -0.000000 0.046223 0.789905 
1.000000 12.495575 1.000000 -0.000000 -0.000000 1.000000 0.982681 0.038376 
1.000000 12.495577 -1.000000 0.000000 0.000000 -1.000000 0.982681 0.038171 
-1.000000 12.495577 -1.000000 -0.999997 -0.002282 -0.000000 0.060471 0.601576 
1.000000 12.495575 1.000000 0.000001 1.000000 0.000001 0.846950 0.242197 
1.000000 12.495577 -1.000000 0.000001 1.000000 0.000001 0.636860 0.244289 
-1.000000 12.495577 1.000000 0.000001 1.000000 0.000001 0.849043 0.452287 
1.000000 12.495577 -1.000000 -0.000000 1.000000 0.000000 0.636860 0.244289 
-1.000000 12.495577 -1.000000 -0.000000 1.000000 0.000000 0.638953 0.454380 
-1.000000 12.495577 1.000000 -0.000000 1.000000 0.000000 0.849043 0.452287 
-2.399764 2.684821 1.000000 0.006945 0.999976 0.000000 0.953359 0.601977 
-0.977585 2.674944 1.000000 0.006945 0.999976 0.000000 0.847791 0.604543 
-2.399763 2.684821 -1.000000 0.006945 0.999976 0.000000 0.956967 0.750437 
-0.977585 2.674944 -1.000000 0.006945 0.999976 0.000000 0.851399 0.753002 
-2.399764 0.038754 1.000000 -1.000000 0.000000 -0.000000 0.618364 0.240628 
-2.399764 2.684821 1.000000 -1.000000 0.000000 -0.000000 0.618052 0.486387 
-2.399763 2.684821 -1.000000 -1.000000 0.000000 -0.000000 0.432298 0.486151 
-2.399764 0.038753 -1.000000 -1.000000 0.000000 -0.000000 0.432610 0.240392 
1.000000 0.038753 -1.000000 -0.000000 -1.000000 -0.000000 0.258689 0.235499 
0.999999 0.038753 1.000000 -0.000000 -1.000000 -0.000000 0.407192 0.235043 
-2.399764 0.038753 -1.000000 -0.000000 -1.000000 -0.000000 0.259463 0.487935 
-2.399764 0.038754 1.000000 -0.000000 -1.000000 0.000000 0.407966 0.487480 
3 0 1 2
3 3 4 5
3 6 7 5
3 8 9 2
3 7 3 5
3 1 8 2
3 10 11 12
3 13 14 15
3 16 10 12
3 17 6 5
3 9 18 2
3 13 19 14
3 20 21 22
3 23 24 25
3 26 27 28
3 27 29 28
3 30 31 32
3 30 32 33
3 34 35 36
3 35 37 36
